# Blender 3.5.1
# www.blender.org
mtllib PiernaIzqMarlene.mtl
o PiernaIzqMarlene
v -0.119750 -1.750122 0.717408
v -0.770386 -2.277222 0.442750
v 1.532349 -2.277466 1.175660
v -0.770386 -2.277222 0.442750
v -0.798461 -0.882447 0.175171
v -0.119262 -1.750122 -0.164428
v -0.012816 -0.842896 -0.574829
v 0.325074 -1.666870 0.422730
v 0.694215 -0.884644 0.202027
v -0.112670 -0.924439 0.623658
v -0.010619 -0.475464 0.654419
v -0.798461 -0.882447 0.175171
v -1.063110 -0.197876 0.018921
v -0.012816 -0.842896 -0.574829
v 0.093385 0.176147 -0.780395
v 0.694215 -0.884644 0.202027
v 1.063110 0.197876 -0.018920
v -0.010619 -0.475464 0.654419
v -0.770386 -2.277222 0.442750
v -0.119750 -1.750122 0.717408
v -0.798461 -0.882447 0.175171
v -0.112670 -0.924439 0.623658
v -1.063110 -0.197876 0.018921
v -0.010619 -0.475464 0.654419
v -0.119750 -1.750122 0.717408
v 1.532349 -2.277466 1.175660
v 0.325074 -1.666870 0.422730
v 1.530885 -2.277466 -0.297973
v -0.119262 -1.750122 -0.164428
v -1.063110 -0.197876 0.018921
v 0.093385 0.176147 -0.780395
v -0.770386 -2.277222 0.442750
v -0.119262 -1.750122 -0.164428
v 1.530885 -2.277466 -0.297973
v 1.530885 -2.277466 -0.297973
v 1.532349 -2.277466 1.175660
v -0.770386 -2.277222 0.442750
v -0.598708 0.570759 -0.404973
v 0.188667 0.719755 -0.783744
v 1.051312 0.163254 -0.011854
v 0.998221 0.196422 -0.069875
v 0.998221 0.196422 -0.069875
v -0.119750 -1.750122 0.717408
v 0.325074 -1.666870 0.422730
v -0.112670 -0.924439 0.623658
vn -0.3011 -0.1212 0.9459
vn -0.5994 -0.1624 -0.7838
vn -0.6350 -0.2056 -0.7446
vn -0.0678 -0.3561 -0.9320
vn 0.0780 -0.4597 -0.8847
vn 0.9314 -0.3633 -0.0223
vn 0.8854 -0.4046 0.2291
vn 0.4647 -0.0799 0.8818
vn 0.4632 -0.1649 0.8708
vn -0.6238 -0.3951 -0.6743
vn -0.5944 -0.2707 -0.7573
vn 0.0611 -0.2703 -0.9608
vn 0.1889 -0.2645 -0.9457
vn 0.9659 -0.2506 0.0657
vn 0.5837 -0.3486 -0.7334
vn 0.9481 -0.3039 0.0939
vn 0.8733 -0.3638 -0.3241
vn 0.5359 -0.0103 0.8442
vn -0.4881 0.1550 0.8589
vn -0.5059 0.1365 0.8517
vn -0.5365 0.0388 0.8430
vn -0.5296 0.0656 0.8457
vn -0.5324 0.0081 0.8465
vn -0.5052 0.0558 0.8612
vn 0.1478 0.8707 0.4691
vn 0.3971 0.9120 0.1029
vn 0.2764 0.9573 0.0845
vn 0.4031 0.9100 -0.0966
vn 0.2634 0.9072 -0.3280
vn -0.6636 0.6264 0.4089
vn -0.6837 0.7257 -0.0777
vn -0.0265 -0.0598 -0.9979
vn 0.1986 0.7875 -0.5835
vn 0.3931 0.8221 0.4120
vn -0.2490 -0.5832 -0.7732
vn -0.0001 -1.0000 -0.0000
vn 0.5382 0.0905 0.8380
vn 0.1390 -0.8022 -0.5806
vt 0.983149 0.033707
vt 0.988031 0.024918
vt 0.923578 0.024918
vt 0.281977 -0.004867
vt 0.298090 0.087906
vt 0.243891 -0.004867
vt 0.243402 0.108902
vt 0.194086 -0.004867
vt 0.174066 0.104020
vt 0.108148 0.067398
vt 0.107172 0.102555
vt 0.298090 0.087906
vt 0.314691 0.181168
vt 0.243402 0.108902
vt 0.242914 0.223160
vt 0.174066 0.104020
vt 0.154047 0.213395
vt 0.000000 0.000000
vt 0.107172 0.102555
vt 0.104242 -0.004867
vt 0.142816 -0.004867
vt 0.079340 0.051773
vt 0.108148 0.067398
vt 0.054926 0.107926
vt 0.107172 0.102555
vt 0.000000 0.000000
vt 0.983637 0.041031
vt 0.892328 -0.003402
vt 0.992426 0.039567
vt 0.892816 0.089859
vt 0.992914 0.071305
vt 0.000000 0.000000
vt 0.314691 0.181168
vt 0.242914 0.223160
vt 0.988031 0.024918
vt 0.983149 0.033707
vt 0.923578 0.024918
vt 0.049555 0.100602
vt 0.004145 0.079606
vt 0.049555 0.008317
vt 0.292452 0.265090
vt 0.236864 0.267237
vt 0.154687 0.209897
vt 0.159994 0.214048
vt 0.159994 0.214048
vt 0.000000 0.000000
vt 0.142816 -0.004867
vt 0.194086 -0.004867
vt 0.108148 0.067398
s 1
usemtl texture_001
f 1/1/1 2/2/1 3/3/1
f 4/4/2 5/5/3 6/6/4
f 5/5/3 7/7/5 6/6/4
f 6/6/4 7/7/5 8/8/6
f 7/7/5 9/9/7 8/8/6
f 8/8/6 9/9/7 10/10/8
f 9/9/7 11/11/9 10/10/8
f 12/12/10 13/13/11 14/14/12
f 13/13/11 15/15/13 14/14/12
f 14/14/12 15/15/13 16/16/14
f 15/15/13 41/44/15 40/43/16 16/16/14
f 16/16/14 40/43/16 17/17/17 18/19/18
f 19/20/19 20/21/20 21/22/21
f 20/21/20 22/23/22 21/22/21
f 21/22/21 22/23/22 23/24/23
f 22/23/22 24/25/24 23/24/23
f 25/27/25 26/28/26 27/29/27
f 26/28/26 28/30/28 27/29/27
f 27/29/27 28/30/28 29/31/29
f 30/33/30 38/41/31 31/34/32
f 31/34/32 39/42/33 42/45/34
f 32/35/35 33/36/35 34/37/35
f 35/38/36 36/39/36 37/40/36
f 39/42/33 31/34/32 38/41/31
f 40/43/16 41/44/15 17/17/17
f 43/47/37 44/48/37 45/49/37
s 0
f 30/32/38 17/18/38 24/26/38
s 1
f 30/33/30 42/46/34 38/41/31
f 38/41/31 42/46/34 39/42/33
