# 3ds Max Wavefront OBJ Exporter v0.99 - (c)2007 guruware
# File Created: 06.06.2023 17:18:33

mtllib Chimpances.mtl

#
# object Plane001
#

v  -2.2193 -10.4230 42.0185
v  -0.8716 -10.4230 42.0185
v  10.0000 0.0000 30.0000
v  -10.8089 -10.4230 24.5841
v  0.8625 -2.5293 42.0185
v  -18.8402 -10.4230 7.7724
v  -2.2193 -2.5293 0.2244
v  -18.8402 -10.4230 0.2244
v  -0.8716 -2.5293 0.2244
v  0.8625 -2.5293 0.2244
v  17.4834 -2.5293 21.1215
v  17.4834 -2.5293 0.2244
v  -9.7352 -10.4230 -25.1118
v  -18.8402 -10.4230 -7.2434
v  -0.8716 -2.5293 -20.6726
v  7.8703 -2.5293 -33.1914
v  17.4834 -2.5293 -20.6726
v  -0.8716 -2.5293 -41.5696
v  -2.2193 -2.5293 -41.5696
v  0.8625 -2.5293 -41.5696
v  -18.8402 6.7732 7.7724
v  -10.8089 6.7732 24.5841
v  -2.2193 6.7732 42.0185
v  -0.8716 6.7732 42.0185
v  0.8625 6.7732 42.0185
v  10.4652 6.7732 30.3848
v  17.4834 6.7732 21.1215
v  -18.8402 6.7732 0.2244
v  17.4834 6.7732 0.2244
v  -18.8402 6.7732 -7.2434
v  -9.7352 6.7732 -25.1118
v  17.4834 6.7732 -20.6726
v  7.8703 6.7732 -33.1914
v  -2.2193 6.7732 -41.5696
v  -0.8716 6.7732 -41.5696
v  0.8625 6.7732 -41.5696
# 36 vertices

vn -0.2993 0.8502 0.4331
vn -0.3245 0.8400 0.4349
vn -0.3616 0.9321 0.0198
vn -0.4381 0.8842 0.1621
vn -0.8011 0.1760 -0.5720
vn -0.3904 0.9154 0.0976
vn -0.2096 0.9739 0.0867
vn -0.3851 0.9208 -0.0612
vn -0.0610 0.9966 0.0552
vn 0.0000 0.9991 -0.0424
vn 0.3202 0.9474 -0.0000
vn 0.0264 0.9990 -0.0357
vn -0.5775 0.8155 -0.0385
vn 0.0000 1.0000 -0.0000
vn -0.3449 0.9385 -0.0134
vn -0.1335 0.9788 0.1555
vn 0.0000 0.9017 0.4325
vn 0.9023 0.0000 -0.4311
vn 0.8970 0.0000 -0.4420
vn 0.0000 0.0000 -1.0000
vn -0.7961 0.0000 -0.6052
vn -0.7682 0.0888 -0.6341
vn -0.7490 0.0887 -0.6566
vn -0.7971 0.0000 -0.6039
vn 1.0000 0.0000 -0.0000
vn -1.0000 0.0000 -0.0000
vn 0.8910 0.0000 0.4540
vn 0.8910 -0.0000 0.4540
vn -0.7931 0.0000 0.6090
vn 0.9096 0.0000 0.4154
vn 0.0000 0.0000 1.0000
vn -0.7671 0.0000 0.6416
# 32 vertex normals

vt 0.0010 0.3520 0.0000
vt 0.0010 0.3359 0.0000
vt 0.2505 0.3359 0.0000
vt 0.2092 0.4546 0.0000
vt 0.2505 0.1121 0.0000
vt 0.0010 0.2063 0.0000
vt 0.0010 0.1121 0.0000
vt 0.4099 0.5505 0.0000
vt 0.5000 0.3520 0.0000
vt 0.5000 0.5505 0.0000
vt 0.5000 0.3359 0.0000
vt 0.1399 0.2006 0.0000
vt 0.2505 0.1168 0.0000
vt 0.5000 0.1168 0.0000
vt 0.5000 0.3152 0.0000
vt 0.8025 0.4418 0.0000
vt 0.5892 0.5505 0.0000
vt 0.7495 0.3359 0.0000
vt 0.8990 0.2316 0.0000
vt 0.7495 0.1168 0.0000
vt 0.9990 0.3359 0.0000
vt 0.9990 0.3520 0.0000
vt 0.9990 0.3152 0.0000
vt 0.2092 0.7884 0.0000
vt 0.4099 0.7884 0.0000
vt 0.4099 0.9937 0.0000
vt 0.2092 0.9937 0.0000
vt 0.0010 0.7884 0.0000
vt 0.0010 0.9937 0.0000
vt 0.0171 0.5815 0.0000
vt 0.0010 0.5815 0.0000
vt 0.0010 0.3762 0.0000
vt 0.0171 0.3762 0.0000
vt 0.1399 0.1121 0.0000
vt 0.0010 0.0010 0.0000
vt 0.1399 0.0010 0.0000
vt 0.0378 0.4873 0.0000
vt 0.0378 0.3762 0.0000
vt 0.2505 0.0010 0.0000
vt 0.5000 0.7884 0.0000
vt 0.5000 0.9937 0.0000
vt 0.5000 0.1121 0.0000
vt 0.5000 0.0010 0.0000
vt 0.5892 0.7884 0.0000
vt 0.5892 0.9937 0.0000
vt 0.8025 0.7884 0.0000
vt 0.8025 0.9937 0.0000
vt 0.8990 0.1121 0.0000
vt 0.7495 0.1121 0.0000
vt 0.7495 0.0010 0.0000
vt 0.8990 0.0010 0.0000
vt 0.9990 0.8827 0.0000
vt 0.9990 0.9937 0.0000
vt 0.0797 0.4132 0.0000
vt 0.0958 0.4132 0.0000
vt 0.0958 0.5243 0.0000
vt 0.0797 0.5243 0.0000
vt 0.1165 0.4132 0.0000
vt 0.1165 0.5243 0.0000
vt 0.9990 0.1121 0.0000
vt 0.9990 0.0010 0.0000
# 61 texture coords

o Plane001
g Plane001
usemtl Material__22
s 1
f 1/1/1 2/2/2 3/3/3 
f 3/3/3 4/4/4 1/1/1 
f 2/5/2 5/6/5 3/7/3 
f 6/8/6 4/4/4 7/9/7 
f 7/9/7 8/10/8 6/8/6 
f 4/4/4 3/3/3 9/11/9 
f 9/11/9 7/9/7 4/4/4 
f 9/11/9 3/3/3 10/12/10 
f 3/12/3 11/13/11 12/14/12 
f 12/14/12 10/15/10 3/12/3 
f 8/10/8 7/9/7 13/16/13 
f 13/16/13 14/17/14 8/10/8 
f 7/9/7 9/11/9 15/18/15 
f 15/18/15 13/16/13 7/9/7 
f 9/11/9 10/15/10 16/19/14 
f 16/19/14 15/18/15 9/11/9 
f 10/15/10 12/14/12 17/20/14 
f 17/20/14 16/19/14 10/15/10 
f 13/16/13 15/18/15 18/21/16 
f 18/21/16 19/22/17 13/16/13 
f 15/18/15 16/19/14 20/23/14 
f 20/23/14 18/21/16 15/18/15 
s off
f 4/24/18 6/25/18 21/26/18 
f 21/26/18 22/27/18 4/24/18 
f 1/28/19 4/24/19 22/27/19 
f 22/27/19 23/29/19 1/28/19 
f 2/30/20 1/31/20 23/32/20 
f 23/32/20 24/33/20 2/30/20 
f 3/34/21 5/7/21 25/35/21 
f 25/35/22 26/36/22 3/34/22 
f 5/37/20 2/30/20 24/33/20 
f 24/33/20 25/38/20 5/37/20 
f 11/5/23 3/34/23 26/36/23 
f 26/36/24 27/39/24 11/5/24 
f 6/25/25 8/40/25 28/41/25 
f 28/41/25 21/26/25 6/25/25 
f 12/42/26 11/5/26 27/39/26 
f 27/39/26 29/43/26 12/42/26 
f 8/40/25 14/44/25 30/45/25 
f 30/45/25 28/41/25 8/40/25 
f 14/44/27 13/46/27 31/47/27 
f 31/47/28 30/45/28 14/44/28 
f 16/48/29 17/49/29 32/50/29 
f 32/50/29 33/51/29 16/48/29 
f 17/49/26 12/42/26 29/43/26 
f 29/43/26 32/50/26 17/49/26 
f 13/46/30 19/52/30 34/53/30 
f 34/53/30 31/47/30 13/46/30 
f 19/54/31 18/55/31 35/56/31 
f 35/56/31 34/57/31 19/54/31 
f 18/55/31 20/58/31 36/59/31 
f 36/59/31 35/56/31 18/55/31 
f 20/60/32 16/48/32 33/51/32 
f 33/51/32 36/61/32 20/60/32 
# 54 faces

#
# object Plane002
#

v  3.7960 0.0000 34.7878
v  4.5669 0.0000 34.9757
v  9.5392 0.0000 18.7029
v  6.1012 0.0000 22.0556
v  8.9934 0.0000 29.9051
v  11.6029 0.0000 18.7029
v  12.0406 0.0000 25.0224
v  14.4523 0.0000 18.7029
v  15.4210 0.0000 20.1396
v  15.6728 0.0000 18.7029
v  9.5392 0.0000 -0.0599
v  4.1418 0.0000 16.4361
v  11.6029 0.0000 -0.0599
v  14.4523 0.0000 -0.0599
v  15.4750 0.0000 -0.0599
v  0.8101 0.0000 10.6212
v  9.5392 0.0000 -10.2010
v  11.6029 0.0000 -10.2010
v  14.4523 0.0000 -10.2010
v  15.4750 0.0000 -10.2010
v  4.1504 0.0000 -7.6682
v  1.2101 0.0000 -41.5185
v  11.6029 0.0000 -25.1944
v  14.6501 0.0000 -21.0940
v  15.4750 0.0000 -19.9529
v  7.6074 0.0000 22.0556
v  5.3023 0.0000 34.7878
v  6.0731 0.0000 34.9757
v  10.4996 0.0000 29.9051
v  13.5468 0.0000 25.0224
v  16.9272 0.0000 20.1396
v  17.1790 0.0000 18.7029
v  5.6480 0.0000 16.4361
v  16.9812 0.0000 -0.0599
v  2.3164 0.0000 10.6212
v  16.9812 0.0000 -10.2010
v  5.6566 0.0000 -7.6682
v  2.7164 0.0000 -38.9267
v  13.1091 0.0000 -25.1944
v  16.1563 0.0000 -21.0940
v  16.9812 0.0000 -19.9529
# 41 vertices

vn 0.0000 1.0000 -0.0000
vn 0.0000 -1.0000 -0.0000
# 2 vertex normals

vt 0.6427 0.9921 0.0000
vt 0.6327 0.9946 0.0000
vt 0.5680 0.7827 0.0000
vt 0.6127 0.8264 0.0000
vt 0.5751 0.9286 0.0000
vt 0.5411 0.7827 0.0000
vt 0.5354 0.8650 0.0000
vt 0.5040 0.7827 0.0000
vt 0.4914 0.8014 0.0000
vt 0.4881 0.7827 0.0000
vt 0.5680 0.5384 0.0000
vt 0.6382 0.7532 0.0000
vt 0.5411 0.5384 0.0000
vt 0.5040 0.5384 0.0000
vt 0.4907 0.5384 0.0000
vt 0.6816 0.6775 0.0000
vt 0.5680 0.4064 0.0000
vt 0.5411 0.4064 0.0000
vt 0.5040 0.4064 0.0000
vt 0.4907 0.4064 0.0000
vt 0.6381 0.4393 0.0000
vt 0.6764 -0.0014 0.0000
vt 0.5411 0.2111 0.0000
vt 0.5014 0.2645 0.0000
vt 0.4907 0.2794 0.0000
vt 0.4073 0.0007 0.0000
vt 0.3658 0.1640 0.0000
vt 0.3463 0.1626 0.0000
vt 0.3878 -0.0007 0.0000
vt 0.3007 0.0120 0.0000
vt 0.2811 0.0107 0.0000
vt 0.6131 0.9946 0.0000
vt 0.5555 0.9286 0.0000
vt 0.5158 0.8650 0.0000
vt 0.4718 0.8014 0.0000
vt 0.4685 0.7827 0.0000
vt 0.3862 0.2387 0.0000
vt 0.3666 0.2374 0.0000
vt 0.4711 0.5384 0.0000
vt 0.4242 0.3173 0.0000
vt 0.4046 0.3159 0.0000
vt 0.4711 0.4064 0.0000
vt 0.3642 0.5518 0.0000
vt 0.3446 0.5504 0.0000
vt 0.3716 0.9942 0.0000
vt 0.3544 0.9591 0.0000
vt 0.5215 0.2111 0.0000
vt 0.6568 0.0323 0.0000
vt 0.4818 0.2645 0.0000
vt 0.4711 0.2794 0.0000
# 50 texture coords

o Plane002
g Plane002
usemtl Material__20
s 1
f 37/62/33 38/63/33 39/64/33 
f 39/64/33 40/65/33 37/62/33 
f 38/63/33 41/66/33 42/67/33 
f 42/67/33 39/64/33 38/63/33 
f 41/66/33 43/68/33 44/69/33 
f 44/69/33 42/67/33 41/66/33 
f 45/70/33 46/71/33 44/69/33 
f 44/69/33 43/68/33 45/70/33 
f 40/65/33 39/64/33 47/72/33 
f 47/72/33 48/73/33 40/65/33 
f 39/64/33 42/67/33 49/74/33 
f 49/74/33 47/72/33 39/64/33 
f 42/67/33 44/69/33 50/75/33 
f 50/75/33 49/74/33 42/67/33 
f 44/69/33 46/71/33 51/76/33 
f 51/76/33 50/75/33 44/69/33 
f 52/77/33 48/73/33 47/72/33 
f 47/72/33 53/78/33 52/77/33 
f 47/72/33 49/74/33 54/79/33 
f 54/79/33 53/78/33 47/72/33 
f 49/74/33 50/75/33 55/80/33 
f 55/80/33 54/79/33 49/74/33 
f 50/75/33 51/76/33 56/81/33 
f 56/81/33 55/80/33 50/75/33 
f 57/82/33 52/77/33 53/78/33 
f 53/78/33 58/83/33 57/82/33 
f 53/78/33 54/79/33 59/84/33 
f 59/84/33 58/83/33 53/78/33 
f 54/79/33 55/80/33 60/85/33 
f 60/85/33 59/84/33 54/79/33 
f 55/80/33 56/81/33 61/86/33 
f 61/86/33 60/85/33 55/80/33 
s off
f 37/87/34 40/88/34 62/89/34 
f 62/89/34 63/90/34 37/87/34 
f 38/91/34 37/87/34 63/90/34 
f 63/90/34 64/92/34 38/91/34 
f 41/66/33 38/63/33 64/93/33 
f 64/93/33 65/94/33 41/66/33 
f 43/68/33 41/66/33 65/94/33 
f 65/94/33 66/95/33 43/68/33 
f 46/71/33 45/70/33 67/96/33 
f 67/96/33 68/97/33 46/71/33 
f 45/70/33 43/68/33 66/95/33 
f 66/95/33 67/96/33 45/70/33 
f 40/88/34 48/98/34 69/99/34 
f 69/99/34 62/89/34 40/88/34 
f 51/76/33 46/71/33 68/97/33 
f 68/97/33 70/100/33 51/76/33 
f 48/98/34 52/101/34 71/102/34 
f 71/102/34 69/99/34 48/98/34 
f 56/81/33 51/76/33 70/100/33 
f 70/100/33 72/103/33 56/81/33 
f 52/101/34 57/104/34 73/105/34 
f 73/105/34 71/102/34 52/101/34 
f 57/104/34 58/106/34 74/107/34 
f 74/107/34 73/105/34 57/104/34 
f 58/83/33 59/84/33 75/108/33 
f 75/108/34 74/109/34 58/83/34 
f 59/84/33 60/85/33 76/110/33 
f 76/110/33 75/108/33 59/84/33 
f 60/85/33 61/86/33 77/111/33 
f 77/111/33 76/110/33 60/85/33 
f 61/86/33 56/81/33 72/103/33 
f 72/103/33 77/111/33 61/86/33 
# 64 faces

#
# object Plane003
#

v  -5.2297 -0.5813 33.5977
v  -2.6747 -0.5813 39.1219
v  3.7889 -0.5813 32.2282
v  -2.2202 -0.5813 39.1219
v  6.1778 -0.5813 32.2282
v  3.6521 -0.5813 32.0559
v  -1.6414 -0.5813 27.8278
v  6.1937 -0.5813 20.4073
v  -10.2744 -0.5813 11.5861
v  -8.7172 -0.5813 14.8869
v  -6.3586 -0.5813 11.5861
v  -6.3586 -0.5813 19.1185
v  -4.0000 -0.5813 11.5861
v  -4.0000 -0.5813 23.0701
v  -1.6414 -0.5813 11.5861
v  4.2332 -0.5813 15.2554
v  -12.1232 -0.5813 4.0537
v  -6.3586 -0.5813 4.0537
v  -4.0000 -0.5813 4.0537
v  -1.6414 -0.5813 4.0537
v  0.7172 -0.5813 9.5795
v  -12.9179 -0.5813 -3.4788
v  -6.3586 -0.5813 -3.4788
v  -4.0000 -0.5813 -3.4788
v  -1.6414 -0.5813 -3.4788
v  4.2253 -0.5813 -7.5868
v  -12.3374 -0.5813 -11.0112
v  -3.8683 -0.5813 -11.0112
v  -1.5097 -0.5813 -11.0112
v  0.8489 -0.5813 -11.0112
v  3.9837 -0.5813 -11.0112
v  -9.2793 -0.5813 -18.5436
v  -4.8966 -0.5813 -18.5436
v  -2.5380 -0.5813 -18.5436
v  -0.1794 -0.5813 -18.5436
v  3.0875 -0.5813 -18.5436
v  -8.7172 -0.5813 -26.0761
v  -6.7235 -0.5813 -29.8311
v  -4.9627 -0.5813 -35.0977
v  -0.1794 -0.5813 -26.0761
v  2.3933 -0.5813 -26.0761
v  -2.9252 -0.5813 -38.5875
v  -1.6414 -0.5813 -38.5875
v  1.2916 -0.5813 -38.5652
v  -12.1232 4.6287 4.0537
v  -10.2744 2.7710 11.5861
v  -12.9179 5.7494 -3.4788
v  0.7172 2.6537 9.5795
v  4.2253 5.0205 -7.5868
v  -12.3374 5.0205 -11.0112
v  3.9837 5.0205 -11.0112
v  -9.2793 7.6672 -14.0031
v  3.0875 4.5779 -18.5436
v  -8.7172 7.2246 -21.5355
v  -6.7235 7.2246 -25.2905
v  -4.9627 7.2246 -30.5571
v  2.3933 4.5779 -26.0761
v  -2.9252 7.2246 -34.0469
v  -1.6414 4.5779 -38.5875
v  1.2916 4.5779 -38.5652
v  -5.2297 -0.1657 33.5977
v  -2.6747 -0.1247 39.1219
v  -2.2202 -0.1247 39.1219
v  0.1384 -0.1247 39.1219
v  6.1778 -0.1247 32.2282
v  0.1384 -0.5813 39.1219
v  3.6521 -0.1247 32.0559
v  -8.7172 2.6537 14.8869
v  -6.3586 2.6537 19.1185
v  -4.0000 2.6537 23.0701
v  -1.6414 0.5316 27.8278
v  6.1937 2.6537 20.4073
v  -10.2744 2.6537 11.5861
v  4.2332 2.6537 15.2554
v  0.7172 2.7710 9.5795
v  4.2253 6.7938 -7.5868
v  -12.3374 6.7938 -11.0112
v  -12.9179 7.5227 -3.4788
v  3.9837 6.7938 -11.0112
v  -9.2793 9.4405 -14.0031
v  3.0875 6.3512 -18.5436
v  -8.7172 8.9979 -21.5355
v  -6.7235 8.9979 -25.2905
v  -4.9627 8.9979 -30.5571
v  2.3933 8.9979 -21.5355
v  -2.9252 8.9979 -34.0469
v  -1.6414 8.9979 -34.0469
v  1.2916 8.9979 -34.0247
# 88 vertices

vn 0.0000 1.0000 -0.0000
vn 0.9752 0.0000 -0.2215
vn 0.9953 0.0000 -0.0972
vn -0.9826 0.0000 -0.1858
vn 0.9975 0.0000 0.0711
vn -0.9979 0.0000 0.0651
vn 0.7265 0.0000 0.6872
vn -0.9940 0.0000 0.1095
vn 0.9971 -0.0277 0.0712
vn 0.8830 -0.1788 0.4339
vn 0.9483 -0.1209 0.2934
vn -0.9964 0.0000 0.0850
vn 0.8634 -0.1922 0.4665
vn 0.9193 -0.1499 0.3639
vn -0.0082 0.0000 1.0000
vn -0.9967 0.0000 0.0814
vn 0.9193 0.0000 -0.3935
vn 0.0000 0.0000 -1.0000
vn -0.7768 0.0000 -0.6298
vn -0.0735 0.0000 0.9973
vn 0.8887 -0.0000 -0.4584
vn 0.8753 0.0000 -0.4835
vn 0.9089 0.0000 -0.4170
vn 0.8667 0.0000 0.4988
vn -0.9802 -0.0000 -0.1979
vn 0.9165 0.0000 -0.4001
vn -0.9432 0.0000 0.3322
vn -0.8675 0.0000 0.4974
vn 0.0000 0.0000 -0.0000
vn 0.9976 0.0000 0.0689
vn 0.8975 0.0000 0.4410
vn 0.9553 0.0000 0.2956
vn -0.9905 -0.0811 0.1114
vn 0.8798 0.0000 0.4754
vn 0.0000 0.0000 1.0000
vn -0.0066 -0.5883 0.8086
vn -0.9949 -0.0591 0.0812
vn 0.5109 -0.8406 -0.1799
vn 0.9953 -0.0000 -0.0972
vn 0.9274 -0.1359 0.3485
vn 0.9972 -0.0284 0.0689
vn 0.8887 0.0000 -0.4584
vn 0.8753 -0.0000 -0.4835
vn -0.9802 0.0000 -0.1979
vn -0.9432 -0.0000 0.3322
vn 0.7784 -0.3694 0.5077
vn 0.1772 -0.9820 -0.0656
vn 0.0000 -1.0000 -0.0000
vn 0.0000 -0.9967 -0.0818
vn -0.1339 -0.9891 -0.0616
vn 0.3999 -0.6816 -0.6128
vn 0.8382 -0.5291 0.1321
vn 0.1919 -0.9769 0.0943
vn -0.5249 -0.7686 -0.3657
vn 0.9224 -0.1319 -0.3629
vn 0.3525 -0.9137 -0.2021
vn -0.3630 -0.9244 -0.1175
vn 0.0152 -0.9366 -0.3502
vn 0.5645 -0.7795 -0.2716
vn 0.4796 -0.8649 0.1484
vn -0.2564 -0.9566 -0.1385
vn -0.3747 -0.9255 -0.0555
vn 0.8783 -0.4746 -0.0573
vn -0.3252 -0.9418 0.0850
vn -0.1497 -0.9530 -0.2635
vn -0.5267 -0.7693 -0.3616
# 66 vertex normals

vt 0.2006 0.1008 0.0000
vt 0.2006 0.0010 0.0000
vt 0.3004 0.1008 0.0000
vt 0.3004 0.0010 0.0000
vt 0.4002 0.1008 0.0000
vt 0.3004 0.2006 0.0000
vt 0.4002 0.2006 0.0000
vt 0.3004 0.3004 0.0000
vt 0.4002 0.3004 0.0000
vt 0.0010 0.4002 0.0000
vt 0.0010 0.3004 0.0000
vt 0.1008 0.4002 0.0000
vt 0.1008 0.3004 0.0000
vt 0.2006 0.4002 0.0000
vt 0.2006 0.3004 0.0000
vt 0.3004 0.4002 0.0000
vt 0.4002 0.4002 0.0000
vt 0.0010 0.5000 0.0000
vt 0.1008 0.5000 0.0000
vt 0.2006 0.5000 0.0000
vt 0.3004 0.5000 0.0000
vt 0.4002 0.5000 0.0000
vt 0.0010 0.5998 0.0000
vt 0.1008 0.5998 0.0000
vt 0.2006 0.5998 0.0000
vt 0.3004 0.5998 0.0000
vt 0.4002 0.5998 0.0000
vt 0.0010 0.6996 0.0000
vt 0.1008 0.6996 0.0000
vt 0.2006 0.6996 0.0000
vt 0.3004 0.6996 0.0000
vt 0.4002 0.6996 0.0000
vt 0.0010 0.7994 0.0000
vt 0.1008 0.7994 0.0000
vt 0.2006 0.7994 0.0000
vt 0.3004 0.7994 0.0000
vt 0.4002 0.7994 0.0000
vt 0.0010 0.8992 0.0000
vt 0.1008 0.8992 0.0000
vt 0.2006 0.8992 0.0000
vt 0.3004 0.8992 0.0000
vt 0.4002 0.8992 0.0000
vt 0.2006 0.9990 0.0000
vt 0.3004 0.9990 0.0000
vt 0.4002 0.9990 0.0000
vt 0.4002 0.0010 0.0000
# 46 texture coords

o Plane003
g Plane003
usemtl Material__21
s 1
f 78/112/35 79/113/35 80/114/35 
f 80/114/35 81/115/35 82/116/35 
f 78/117/35 80/114/35 83/118/35 
f 84/119/35 83/118/35 85/120/35 
f 86/121/35 87/122/35 88/123/35 
f 88/123/35 89/124/35 90/125/35 
f 90/125/35 91/126/35 92/127/35 
f 92/127/35 84/119/35 93/128/35 
f 94/129/35 86/121/35 95/130/35 
f 95/130/35 88/123/35 96/131/35 
f 96/131/35 90/125/35 97/132/35 
f 97/132/35 92/127/35 98/133/35 
f 99/134/35 94/129/35 100/135/35 
f 100/135/35 95/130/35 101/136/35 
f 101/136/35 96/131/35 102/137/35 
f 102/137/35 97/132/35 103/138/35 
f 104/139/35 99/134/35 105/140/35 
f 105/140/35 100/135/35 106/141/35 
f 106/141/35 101/136/35 107/142/35 
f 107/142/35 102/137/35 108/143/35 
f 109/144/35 104/139/35 110/145/35 
f 110/145/35 105/140/35 111/146/35 
f 111/146/35 106/141/35 112/147/35 
f 112/147/35 107/142/35 113/148/35 
f 114/149/35 109/144/35 115/150/35 
f 115/150/35 110/145/35 116/151/35 
f 116/151/35 111/146/35 117/152/35 
f 117/152/35 112/147/35 118/153/35 
f 119/154/35 116/151/35 120/155/35 
f 120/155/35 117/152/35 121/156/35 
s off
f 86/121/36 122/129/36 123/121/36 
f 94/129/37 124/134/37 122/129/37 
f 103/138/38 125/133/38 126/138/38 
f 99/134/39 127/139/39 124/134/39 
f 108/143/40 126/138/40 128/143/40 
f 104/139/41 129/144/41 127/139/41 
f 113/148/42 128/143/42 130/148/42 
f 109/144/43 131/149/43 129/144/43 
f 114/149/44 132/150/44 131/149/44 
f 115/150/45 133/151/45 132/150/45 
f 118/153/46 130/148/46 134/153/46 
f 116/151/47 135/154/47 133/151/47 
f 119/154/48 136/155/48 135/154/48 
f 120/155/49 137/156/49 136/155/49 
f 121/156/50 134/153/50 137/156/50 
f 79/113/51 138/112/51 139/113/51 
f 81/115/52 139/113/52 140/115/52 
f 82/116/53 141/157/53 142/116/53 
f 143/157/52 140/115/52 141/157/52 
f 83/118/54 142/116/54 144/118/54 
f 89/124/55 145/122/55 146/124/55 
f 91/126/56 146/124/56 147/126/56 
f 84/119/57 147/126/57 148/119/57 
f 78/117/58 148/119/58 138/117/58 
f 85/120/59 144/118/59 149/120/59 
f 87/122/60 150/121/60 145/122/60 
f 93/128/61 149/120/61 151/128/61 
f 98/133/62 151/128/62 125/133/62 
f 86/121/63 123/121/63 150/121/63 
f 126/138/38 152/133/38 153/138/38 
f 124/134/39 154/139/39 155/134/39 
f 128/143/40 153/138/40 156/143/40 
f 127/139/41 157/144/41 154/139/41 
f 130/148/42 156/143/42 158/148/42 
f 129/144/64 159/149/64 157/144/64 
f 131/149/65 160/150/65 159/149/65 
f 132/150/66 161/151/66 160/150/66 
f 134/153/67 158/148/67 162/153/67 
f 133/151/68 163/154/68 161/151/68 
f 135/154/69 164/155/69 163/154/69 
f 136/155/70 165/156/70 164/155/70 
f 137/156/71 162/153/71 165/156/71 
f 144/118/72 151/128/72 149/120/72 
s 1
f 79/113/35 81/115/35 80/114/35 
f 81/115/35 143/157/35 82/116/35 
f 80/114/35 82/116/35 83/118/35 
f 84/119/35 78/117/35 83/118/35 
f 87/122/35 89/124/35 88/123/35 
f 89/124/35 91/126/35 90/125/35 
f 91/126/35 84/119/35 92/127/35 
f 84/119/35 85/120/35 93/128/35 
f 86/121/35 88/123/35 95/130/35 
f 88/123/35 90/125/35 96/131/35 
f 90/125/35 92/127/35 97/132/35 
f 92/127/35 93/128/35 98/133/35 
f 94/129/35 95/130/35 100/135/35 
f 95/130/35 96/131/35 101/136/35 
f 96/131/35 97/132/35 102/137/35 
f 97/132/35 98/133/35 103/138/35 
f 99/134/35 100/135/35 105/140/35 
f 100/135/35 101/136/35 106/141/35 
f 101/136/35 102/137/35 107/142/35 
f 102/137/35 103/138/35 108/143/35 
f 104/139/35 105/140/35 110/145/35 
f 105/140/35 106/141/35 111/146/35 
f 106/141/35 107/142/35 112/147/35 
f 107/142/35 108/143/35 113/148/35 
f 109/144/35 110/145/35 115/150/35 
f 110/145/35 111/146/35 116/151/35 
f 111/146/35 112/147/35 117/152/35 
f 112/147/35 113/148/35 118/153/35 
f 116/151/35 117/152/35 120/155/35 
f 117/152/35 118/153/35 121/156/35 
s off
f 86/121/36 94/129/36 122/129/36 
f 94/129/73 99/134/73 124/134/73 
f 103/138/38 98/133/38 125/133/38 
f 99/134/39 104/139/39 127/139/39 
f 108/143/40 103/138/40 126/138/40 
f 104/139/74 109/144/74 129/144/74 
f 113/148/42 108/143/42 128/143/42 
f 109/144/75 114/149/75 131/149/75 
f 114/149/44 115/150/44 132/150/44 
f 115/150/45 116/151/45 133/151/45 
f 118/153/46 113/148/46 130/148/46 
f 116/151/47 119/154/47 135/154/47 
f 119/154/69 120/155/69 136/155/69 
f 120/155/49 121/156/49 137/156/49 
f 121/156/50 118/153/50 134/153/50 
f 79/113/51 78/112/51 138/112/51 
f 81/115/52 79/113/52 139/113/52 
f 82/116/53 143/157/53 141/157/53 
f 143/157/52 81/115/52 140/115/52 
f 83/118/54 82/116/54 142/116/54 
f 89/124/76 87/122/76 145/122/76 
f 91/126/77 89/124/77 146/124/77 
f 84/119/57 91/126/57 147/126/57 
f 78/117/58 84/119/58 148/119/58 
f 85/120/78 83/118/78 144/118/78 
f 87/122/60 86/121/60 150/121/60 
f 93/128/79 85/120/79 149/120/79 
f 98/133/62 93/128/62 151/128/62 
f 86/121/63 123/121/63 123/121/63 
f 122/129/37 124/134/37 155/134/37 
f 126/138/38 125/133/38 152/133/38 
f 124/134/39 127/139/39 154/139/39 
f 128/143/40 126/138/40 153/138/40 
f 127/139/41 129/144/41 157/144/41 
f 130/148/42 128/143/42 156/143/42 
f 129/144/64 131/149/64 159/149/64 
f 131/149/65 132/150/65 160/150/65 
f 132/150/66 133/151/66 161/151/66 
f 134/153/46 130/148/46 158/148/46 
f 133/151/68 135/154/68 163/154/68 
f 135/154/80 136/155/80 164/155/80 
f 136/155/70 137/156/70 165/156/70 
f 137/156/71 134/153/71 162/153/71 
f 139/113/81 138/112/81 148/119/81 
f 144/118/82 142/116/82 141/157/82 
f 148/119/83 141/157/83 139/113/83 
f 148/119/84 144/118/84 141/157/84 
f 148/119/85 147/126/85 144/118/85 
f 155/134/86 154/139/86 157/144/86 
f 163/154/82 165/156/82 162/153/82 
f 157/144/87 159/149/87 160/150/87 
f 122/129/88 155/134/88 157/144/88 
f 162/153/89 158/148/89 163/154/89 
f 125/133/90 151/128/90 144/118/90 
f 125/133/91 144/118/91 147/126/91 
f 125/133/82 147/126/82 146/124/82 
f 146/124/82 145/122/82 150/121/82 
f 150/121/92 122/129/92 157/144/92 
f 146/124/93 150/121/93 157/144/93 
f 157/144/94 160/150/94 161/151/94 
f 161/151/95 163/154/95 158/148/95 
f 157/144/96 161/151/96 158/148/96 
f 158/148/97 156/143/97 153/138/97 
f 157/144/98 158/148/98 153/138/98 
f 146/124/99 157/144/99 153/138/99 
f 146/124/100 153/138/100 125/133/100 
# 169 faces

