# 3ds Max Wavefront OBJ Exporter v0.99 - (c)2007 guruware
# File Created: 07.06.2023 03:28:46

mtllib habitat_monos.mtl

#
# object Plane009_chimpances
#

v  -64.9799 -15.8851 113.9641
v  -64.9799 -15.8851 114.2367
v  -48.9469 -0.4200 129.4830
v  -42.8863 -15.8851 93.1127
v  -64.9799 -4.1729 114.4493
v  -19.3601 -15.8851 74.2041
v  -0.5078 -4.1729 98.8654
v  -0.5078 -15.8851 74.2041
v  -0.5078 -4.1729 100.8650
v  -0.5078 -4.1729 103.4380
v  -34.8631 -4.1729 143.3803
v  -0.1486 -4.1729 143.3803
v  41.6321 -15.8851 94.7490
v  19.4696 -15.8851 74.2041
v  30.4981 -4.1729 100.8650
v  46.9801 -4.1729 133.0364
v  35.2788 -4.1729 143.3803
v  64.7312 -4.1729 115.4895
v  64.7312 -4.1729 114.8179
v  64.7056 -4.1729 116.0461
v  -19.3601 9.6297 74.2041
v  -42.8863 9.6297 93.1127
v  -64.9799 9.6297 113.9641
v  -64.9799 9.6297 114.2367
v  -64.9799 9.6297 114.4493
v  -49.5178 9.6297 130.1732
v  -34.8631 9.6297 143.3803
v  -0.5078 9.6297 74.2041
v  -0.1486 9.6297 143.3803
v  19.4696 9.6297 74.2041
v  41.6321 9.6297 94.7490
v  35.2788 9.6297 143.3803
v  46.9801 9.6297 133.0364
v  64.7312 9.6297 114.8179
v  64.7312 9.6297 115.4895
v  64.7056 9.6297 116.0461
# 36 vertices

vn -0.4331 0.8502 -0.2993
vn -0.4349 0.8400 -0.3245
vn -0.0198 0.9321 -0.3616
vn -0.1621 0.8842 -0.4381
vn 0.5720 0.1760 -0.8011
vn -0.0976 0.9154 -0.3904
vn -0.0867 0.9739 -0.2096
vn 0.0612 0.9208 -0.3851
vn -0.0552 0.9966 -0.0610
vn 0.0424 0.9991 0.0000
vn -0.0000 0.9474 0.3202
vn 0.0357 0.9990 0.0264
vn 0.0385 0.8155 -0.5775
vn 0.0000 1.0000 -0.0000
vn 0.0134 0.9385 -0.3449
vn -0.1555 0.9788 -0.1335
vn -0.4325 0.9017 -0.0000
vn 0.4311 0.0000 0.9023
vn 0.4420 0.0000 0.8970
vn 1.0000 0.0000 0.0000
vn 0.6052 0.0000 -0.7961
vn 0.6341 0.0888 -0.7682
vn 0.6566 0.0887 -0.7490
vn 0.6039 0.0000 -0.7971
vn -0.0000 0.0000 1.0000
vn 0.0000 0.0000 -1.0000
vn -0.4540 0.0000 0.8910
vn -0.6090 0.0000 -0.7931
vn -0.4154 0.0000 0.9096
vn -1.0000 0.0000 -0.0000
vn -0.6416 0.0000 -0.7671
# 31 vertex normals

vt 0.0010 0.3520 0.0000
vt 0.0010 0.3359 0.0000
vt 0.2505 0.3359 0.0000
vt 0.2092 0.4546 0.0000
vt 0.2505 0.1121 0.0000
vt 0.0010 0.2063 0.0000
vt 0.0010 0.1121 0.0000
vt 0.4099 0.5505 0.0000
vt 0.5000 0.3520 0.0000
vt 0.5000 0.5505 0.0000
vt 0.5000 0.3359 0.0000
vt 0.1399 0.2006 0.0000
vt 0.2505 0.1168 0.0000
vt 0.5000 0.1168 0.0000
vt 0.5000 0.3152 0.0000
vt 0.8025 0.4418 0.0000
vt 0.5892 0.5505 0.0000
vt 0.7495 0.3359 0.0000
vt 0.8990 0.2316 0.0000
vt 0.7495 0.1168 0.0000
vt 0.9990 0.3359 0.0000
vt 0.9990 0.3520 0.0000
vt 0.9990 0.3152 0.0000
vt 0.2092 0.7884 0.0000
vt 0.4099 0.7884 0.0000
vt 0.4099 0.9937 0.0000
vt 0.2092 0.9937 0.0000
vt 0.0010 0.7884 0.0000
vt 0.0010 0.9937 0.0000
vt 0.0171 0.5815 0.0000
vt 0.0010 0.5815 0.0000
vt 0.0010 0.3762 0.0000
vt 0.0171 0.3762 0.0000
vt 0.1399 0.1121 0.0000
vt 0.0010 0.0010 0.0000
vt 0.1399 0.0010 0.0000
vt 0.0378 0.4873 0.0000
vt 0.0378 0.3762 0.0000
vt 0.2505 0.0010 0.0000
vt 0.5000 0.7884 0.0000
vt 0.5000 0.9937 0.0000
vt 0.5000 0.1121 0.0000
vt 0.5000 0.0010 0.0000
vt 0.5892 0.7884 0.0000
vt 0.5892 0.9937 0.0000
vt 0.8025 0.7884 0.0000
vt 0.8025 0.9937 0.0000
vt 0.8990 0.1121 0.0000
vt 0.7495 0.1121 0.0000
vt 0.7495 0.0010 0.0000
vt 0.8990 0.0010 0.0000
vt 0.9990 0.8827 0.0000
vt 0.9990 0.9937 0.0000
vt 0.0797 0.4132 0.0000
vt 0.0958 0.4132 0.0000
vt 0.0958 0.5243 0.0000
vt 0.0797 0.5243 0.0000
vt 0.1165 0.4132 0.0000
vt 0.1165 0.5243 0.0000
vt 0.9990 0.1121 0.0000
vt 0.9990 0.0010 0.0000
# 61 texture coords

o Plane009_chimpances
g Plane009_chimpances
usemtl Material__22
s 1
f 1/1/1 2/2/2 3/3/3 
f 3/3/3 4/4/4 1/1/1 
f 2/5/2 5/6/5 3/7/3 
f 6/8/6 4/4/4 7/9/7 
f 7/9/7 8/10/8 6/8/6 
f 4/4/4 3/3/3 9/11/9 
f 9/11/9 7/9/7 4/4/4 
f 9/11/9 3/3/3 10/12/10 
f 3/12/3 11/13/11 12/14/12 
f 12/14/12 10/15/10 3/12/3 
f 8/10/8 7/9/7 13/16/13 
f 13/16/13 14/17/14 8/10/8 
f 7/9/7 9/11/9 15/18/15 
f 15/18/15 13/16/13 7/9/7 
f 9/11/9 10/15/10 16/19/14 
f 16/19/14 15/18/15 9/11/9 
f 10/15/10 12/14/12 17/20/14 
f 17/20/14 16/19/14 10/15/10 
f 13/16/13 15/18/15 18/21/16 
f 18/21/16 19/22/17 13/16/13 
f 15/18/15 16/19/14 20/23/14 
f 20/23/14 18/21/16 15/18/15 
s off
f 4/24/18 6/25/18 21/26/18 
f 21/26/18 22/27/18 4/24/18 
f 1/28/19 4/24/19 22/27/19 
f 22/27/19 23/29/19 1/28/19 
f 2/30/20 1/31/20 23/32/20 
f 23/32/20 24/33/20 2/30/20 
f 3/34/21 5/7/21 25/35/21 
f 25/35/22 26/36/22 3/34/22 
f 5/37/20 2/30/20 24/33/20 
f 24/33/20 25/38/20 5/37/20 
f 11/5/23 3/34/23 26/36/23 
f 26/36/24 27/39/24 11/5/24 
f 6/25/25 8/40/25 28/41/25 
f 28/41/25 21/26/25 6/25/25 
f 12/42/26 11/5/26 27/39/26 
f 27/39/26 29/43/26 12/42/26 
f 8/40/25 14/44/25 30/45/25 
f 30/45/25 28/41/25 8/40/25 
f 14/44/27 13/46/27 31/47/27 
f 31/47/27 30/45/27 14/44/27 
f 16/48/28 17/49/28 32/50/28 
f 32/50/28 33/51/28 16/48/28 
f 17/49/26 12/42/26 29/43/26 
f 29/43/26 32/50/26 17/49/26 
f 13/46/29 19/52/29 34/53/29 
f 34/53/29 31/47/29 13/46/29 
f 19/54/30 18/55/30 35/56/30 
f 35/56/30 34/57/30 19/54/30 
f 18/55/30 20/58/30 36/59/30 
f 36/59/30 35/56/30 18/55/30 
f 20/60/31 16/48/31 33/51/31 
f 33/51/31 36/61/31 20/60/31 
# 54 faces

#
# object Plane002_chimpances
#

v  -56.3900 -0.4200 119.1064
v  -56.6688 -0.4200 120.2502
v  -27.9253 -0.4200 132.1767
v  -32.8999 -0.4200 123.7095
v  -47.3493 -0.4200 129.8121
v  -27.9253 -0.4200 135.2387
v  -41.1788 -0.4200 135.5746
v  -27.9253 -0.4200 139.4665
v  -34.9500 -0.4200 140.9038
v  -27.9253 -0.4200 141.2775
v  -0.0860 -0.4200 132.4408
v  -24.5619 -0.4200 120.8022
v  -0.0860 -0.4200 135.5028
v  -0.0860 -0.4200 139.7306
v  -0.0860 -0.4200 141.2480
v  -15.9341 -0.4200 115.8588
v  14.9609 -0.4200 132.4408
v  14.9609 -0.4200 135.5028
v  14.9609 -0.4200 139.7306
v  14.9609 -0.4200 141.2480
v  11.2028 -0.4200 120.8150
v  64.6954 -0.4200 116.1566
v  43.6366 -0.4200 133.5345
v  36.9276 -0.4200 139.3348
v  35.4145 -0.4200 140.9673
v  -32.8999 -0.4200 125.9443
v  -56.3900 -0.4200 121.3414
v  -56.6688 -0.4200 122.4850
v  -47.3493 -0.4200 132.0469
v  -41.1788 -0.4200 137.8094
v  -34.9500 -0.4200 143.1387
v  -27.9253 -0.4200 143.5123
v  -24.5619 -0.4200 123.0370
v  -0.0860 -0.4200 143.4828
v  -15.9341 -0.4200 118.0938
v  14.9609 -0.4200 143.4828
v  11.2028 -0.4200 123.0498
v  57.5826 -0.4200 118.6873
v  43.6366 -0.4200 135.7693
v  36.9276 -0.4200 141.5697
v  35.4145 -0.4200 143.2021
# 41 vertices

vn 0.0000 1.0000 -0.0000
vn 0.0000 -1.0000 -0.0000
# 2 vertex normals

vt 0.6427 0.9921 0.0000
vt 0.6327 0.9946 0.0000
vt 0.5680 0.7827 0.0000
vt 0.6127 0.8264 0.0000
vt 0.5751 0.9286 0.0000
vt 0.5411 0.7827 0.0000
vt 0.5354 0.8650 0.0000
vt 0.5040 0.7827 0.0000
vt 0.4914 0.8014 0.0000
vt 0.4881 0.7827 0.0000
vt 0.5680 0.5384 0.0000
vt 0.6382 0.7532 0.0000
vt 0.5411 0.5384 0.0000
vt 0.5040 0.5384 0.0000
vt 0.4907 0.5384 0.0000
vt 0.6816 0.6775 0.0000
vt 0.5680 0.4064 0.0000
vt 0.5411 0.4064 0.0000
vt 0.5040 0.4064 0.0000
vt 0.4907 0.4064 0.0000
vt 0.6381 0.4393 0.0000
vt 0.6764 -0.0014 0.0000
vt 0.5411 0.2111 0.0000
vt 0.5014 0.2645 0.0000
vt 0.4907 0.2794 0.0000
vt 0.4073 0.0007 0.0000
vt 0.3658 0.1640 0.0000
vt 0.3463 0.1626 0.0000
vt 0.3878 -0.0007 0.0000
vt 0.3007 0.0120 0.0000
vt 0.2811 0.0107 0.0000
vt 0.6131 0.9946 0.0000
vt 0.5555 0.9286 0.0000
vt 0.5158 0.8650 0.0000
vt 0.4718 0.8014 0.0000
vt 0.4685 0.7827 0.0000
vt 0.3862 0.2387 0.0000
vt 0.3666 0.2374 0.0000
vt 0.4711 0.5384 0.0000
vt 0.4242 0.3173 0.0000
vt 0.4046 0.3159 0.0000
vt 0.4711 0.4064 0.0000
vt 0.3642 0.5518 0.0000
vt 0.3446 0.5504 0.0000
vt 0.3716 0.9942 0.0000
vt 0.3544 0.9591 0.0000
vt 0.5215 0.2111 0.0000
vt 0.6568 0.0323 0.0000
vt 0.4818 0.2645 0.0000
vt 0.4711 0.2794 0.0000
# 50 texture coords

o Plane002_chimpances
g Plane002_chimpances
usemtl Material__20
s 1
f 37/62/32 38/63/32 39/64/32 
f 39/64/32 40/65/32 37/62/32 
f 38/63/32 41/66/32 42/67/32 
f 42/67/32 39/64/32 38/63/32 
f 41/66/32 43/68/32 44/69/32 
f 44/69/32 42/67/32 41/66/32 
f 45/70/32 46/71/32 44/69/32 
f 44/69/32 43/68/32 45/70/32 
f 40/65/32 39/64/32 47/72/32 
f 47/72/32 48/73/32 40/65/32 
f 39/64/32 42/67/32 49/74/32 
f 49/74/32 47/72/32 39/64/32 
f 42/67/32 44/69/32 50/75/32 
f 50/75/32 49/74/32 42/67/32 
f 44/69/32 46/71/32 51/76/32 
f 51/76/32 50/75/32 44/69/32 
f 52/77/32 48/73/32 47/72/32 
f 47/72/32 53/78/32 52/77/32 
f 47/72/32 49/74/32 54/79/32 
f 54/79/32 53/78/32 47/72/32 
f 49/74/32 50/75/32 55/80/32 
f 55/80/32 54/79/32 49/74/32 
f 50/75/32 51/76/32 56/81/32 
f 56/81/32 55/80/32 50/75/32 
f 57/82/32 52/77/32 53/78/32 
f 53/78/32 58/83/32 57/82/32 
f 53/78/32 54/79/32 59/84/32 
f 59/84/32 58/83/32 53/78/32 
f 54/79/32 55/80/32 60/85/32 
f 60/85/32 59/84/32 54/79/32 
f 55/80/32 56/81/32 61/86/32 
f 61/86/32 60/85/32 55/80/32 
s off
f 37/87/33 40/88/33 62/89/33 
f 62/89/33 63/90/33 37/87/33 
f 38/91/33 37/87/33 63/90/33 
f 63/90/33 64/92/33 38/91/33 
f 41/66/32 38/63/32 64/93/32 
f 64/93/32 65/94/32 41/66/32 
f 43/68/32 41/66/32 65/94/32 
f 65/94/32 66/95/32 43/68/32 
f 46/71/32 45/70/32 67/96/32 
f 67/96/32 68/97/32 46/71/32 
f 45/70/32 43/68/32 66/95/32 
f 66/95/32 67/96/32 45/70/32 
f 40/88/33 48/98/33 69/99/33 
f 69/99/33 62/89/33 40/88/33 
f 51/76/32 46/71/32 68/97/32 
f 68/97/32 70/100/32 51/76/32 
f 48/98/33 52/101/33 71/102/33 
f 71/102/33 69/99/33 48/98/33 
f 56/81/32 51/76/32 70/100/32 
f 70/100/32 72/103/32 56/81/32 
f 52/101/33 57/104/33 73/105/33 
f 73/105/33 71/102/33 52/101/33 
f 57/104/33 58/106/33 74/107/33 
f 74/107/33 73/105/33 57/104/33 
f 58/83/32 59/84/32 75/108/32 
f 75/108/33 74/109/33 58/83/33 
f 59/84/32 60/85/32 76/110/32 
f 76/110/32 75/108/32 59/84/32 
f 60/85/32 61/86/32 77/111/32 
f 77/111/32 76/110/32 60/85/32 
f 61/86/32 56/81/32 72/103/32 
f 72/103/32 77/111/32 61/86/32 
# 64 faces

#
# object Plane003_chimpances
#

v  -50.0254 -1.2825 104.9691
v  -64.4708 -1.2825 114.0095
v  -56.3974 -1.2825 119.6602
v  -64.4708 -1.2825 114.6838
v  -56.7622 -1.2825 122.4163
v  -56.1417 -1.2825 119.4572
v  -41.4644 -7.6490 110.2932
v  -30.4542 -1.2825 125.6020
v  -17.3657 -8.3658 97.7564
v  -22.2633 -8.2564 100.0669
v  -17.3657 -1.2825 106.9775
v  -28.5419 -6.6024 106.9775
v  -17.3657 -1.2825 110.4771
v  -34.4051 -5.9896 110.4771
v  -17.3657 -1.2825 113.9766
v  -22.8101 -1.2825 122.6931
v  -6.1895 -6.4035 95.0132
v  -6.1895 -1.2825 106.9775
v  -6.1895 -1.2825 110.4771
v  -6.1895 -1.2825 113.9766
v  -14.3884 -1.2825 117.4762
v  4.9868 -7.4123 93.8341
v  4.9868 -1.2825 106.9775
v  4.9868 -1.2825 110.4771
v  4.9868 -1.2825 113.9766
v  11.0821 -1.2825 122.6813
v  16.1630 -10.1245 94.6954
v  16.1630 -1.2825 110.6725
v  16.1630 -1.2825 114.1720
v  16.1630 -1.2825 117.6716
v  16.1630 -1.2825 122.3229
v  27.3392 -6.0410 99.2329
v  27.3392 -1.2825 109.1467
v  27.3392 -1.2825 112.6463
v  27.3392 -1.2825 116.1459
v  27.3392 -1.2825 120.9931
v  38.5155 -8.0842 100.0669
v  44.0870 -1.2825 106.4361
v  51.9014 -1.2825 109.0486
v  38.5155 -1.2825 116.1459
v  38.5155 -1.2825 119.9631
v  59.0922 -1.2825 110.5133
v  64.4584 -1.2825 116.0943
v  57.4940 -1.2825 118.8252
v  -6.1895 6.4478 95.0132
v  -17.3657 3.6915 97.7564
v  4.9868 8.1107 93.8341
v  -14.3884 3.5174 117.4762
v  11.0821 7.9234 122.6813
v  16.1630 7.0292 94.6954
v  16.1630 7.9234 122.3229
v  20.6022 10.9562 99.2329
v  27.3392 7.2667 120.9931
v  31.7784 10.2995 100.0669
v  37.3499 10.2995 103.7337
v  45.1642 10.2995 109.0486
v  38.5155 7.2667 119.9631
v  50.3422 10.2995 112.0718
v  64.4584 6.3724 116.0943
v  57.4940 6.3724 118.8252
v  -50.0254 -0.6659 104.9691
v  -64.4708 -0.6050 114.0095
v  -64.4708 -0.6050 114.6838
v  -61.2804 -0.6050 117.9342
v  -56.7622 -0.6050 122.4163
v  -61.2804 -1.2825 117.9342
v  -56.1417 -0.6050 119.4572
v  -22.2633 3.5174 100.0669
v  -28.5419 3.5174 106.9775
v  -34.4051 3.5174 110.4771
v  -41.4644 0.3687 110.2932
v  -30.4542 4.4117 125.6020
v  -17.3657 3.5174 97.7564
v  -22.8101 4.4117 122.6931
v  -14.3884 4.5857 117.4762
v  11.0821 10.5546 122.6813
v  16.1630 9.6603 94.6954
v  4.9868 10.7418 93.8341
v  16.1630 10.5546 122.3229
v  20.6022 13.5873 99.2329
v  27.3392 9.8979 120.9931
v  31.7784 12.9306 100.0669
v  37.3499 12.9306 103.7337
v  45.1642 12.9306 109.0486
v  31.7784 13.8249 119.9631
v  50.3422 12.9306 112.0718
v  50.3422 12.9306 113.9766
v  50.3093 12.9306 118.3285
# 88 vertices

vn 0.0000 1.0000 -0.0000
vn 0.2215 0.0000 0.9752
vn 0.0972 0.0000 0.9953
vn 0.1858 0.0000 -0.9826
vn -0.0711 0.0000 0.9975
vn -0.0651 0.0000 -0.9979
vn -0.6872 0.0000 0.7265
vn -0.1095 0.0000 -0.9940
vn -0.0712 -0.0277 0.9971
vn -0.4339 -0.1788 0.8830
vn -0.2934 -0.1209 0.9483
vn -0.0850 0.0000 -0.9964
vn -0.4665 -0.1922 0.8634
vn -0.3639 -0.1499 0.9193
vn -1.0000 0.0000 -0.0082
vn -0.0814 0.0000 -0.9967
vn 0.3935 0.0000 0.9193
vn 1.0000 0.0000 0.0000
vn 0.6298 0.0000 -0.7768
vn -0.9973 0.0000 -0.0735
vn 0.4584 0.0000 0.8887
vn 0.4835 0.0000 0.8753
vn 0.4170 0.0000 0.9089
vn -0.4988 0.0000 0.8667
vn 0.1979 0.0000 -0.9802
vn 0.4001 0.0000 0.9165
vn -0.3322 0.0000 -0.9432
vn -0.4974 0.0000 -0.8675
vn 0.0000 0.0000 -0.0000
vn -0.0689 0.0000 0.9976
vn -0.4410 0.0000 0.8975
vn -0.2956 0.0000 0.9553
vn -0.1114 -0.0811 -0.9905
vn -0.4754 0.0000 0.8798
vn -1.0000 0.0000 -0.0000
vn -0.8086 -0.5883 -0.0066
vn -0.0812 -0.0591 -0.9949
vn 0.1799 -0.8406 0.5109
vn -0.3485 -0.1359 0.9274
vn -0.0689 -0.0284 0.9972
vn -0.5077 -0.3694 0.7784
vn 0.0656 -0.9820 0.1772
vn 0.0000 -1.0000 -0.0000
vn 0.0818 -0.9967 0.0000
vn 0.0616 -0.9891 -0.1339
vn 0.6128 -0.6816 0.3999
vn -0.1321 -0.5291 0.8382
vn -0.0943 -0.9769 0.1919
vn 0.3657 -0.7686 -0.5249
vn 0.3629 -0.1319 0.9224
vn 0.2021 -0.9137 0.3525
vn 0.1175 -0.9244 -0.3630
vn 0.3502 -0.9366 0.0152
vn 0.2716 -0.7795 0.5645
vn -0.1484 -0.8649 0.4796
vn 0.1385 -0.9566 -0.2564
vn 0.0555 -0.9255 -0.3747
vn 0.0573 -0.4746 0.8783
vn -0.0850 -0.9418 -0.3252
vn 0.2635 -0.9530 -0.1497
vn 0.3616 -0.7693 -0.5267
# 61 vertex normals

vt 0.2006 0.1008 0.0000
vt 0.2006 0.0010 0.0000
vt 0.3004 0.1008 0.0000
vt 0.3004 0.0010 0.0000
vt 0.4002 0.1008 0.0000
vt 0.3004 0.2006 0.0000
vt 0.4002 0.2006 0.0000
vt 0.3004 0.3004 0.0000
vt 0.4002 0.3004 0.0000
vt 0.0010 0.4002 0.0000
vt 0.0010 0.3004 0.0000
vt 0.1008 0.4002 0.0000
vt 0.1008 0.3004 0.0000
vt 0.2006 0.4002 0.0000
vt 0.2006 0.3004 0.0000
vt 0.3004 0.4002 0.0000
vt 0.4002 0.4002 0.0000
vt 0.0010 0.5000 0.0000
vt 0.1008 0.5000 0.0000
vt 0.2006 0.5000 0.0000
vt 0.3004 0.5000 0.0000
vt 0.4002 0.5000 0.0000
vt 0.0010 0.5998 0.0000
vt 0.1008 0.5998 0.0000
vt 0.2006 0.5998 0.0000
vt 0.3004 0.5998 0.0000
vt 0.4002 0.5998 0.0000
vt 0.0010 0.6996 0.0000
vt 0.1008 0.6996 0.0000
vt 0.2006 0.6996 0.0000
vt 0.3004 0.6996 0.0000
vt 0.4002 0.6996 0.0000
vt 0.0010 0.7994 0.0000
vt 0.1008 0.7994 0.0000
vt 0.2006 0.7994 0.0000
vt 0.3004 0.7994 0.0000
vt 0.4002 0.7994 0.0000
vt 0.0010 0.8992 0.0000
vt 0.1008 0.8992 0.0000
vt 0.2006 0.8992 0.0000
vt 0.3004 0.8992 0.0000
vt 0.4002 0.8992 0.0000
vt 0.2006 0.9990 0.0000
vt 0.3004 0.9990 0.0000
vt 0.4002 0.9990 0.0000
vt 0.4002 0.0010 0.0000
# 46 texture coords

o Plane003_chimpances
g Plane003_chimpances
usemtl Material__21
s 1
f 78/112/34 79/113/34 80/114/34 
f 80/114/34 81/115/34 82/116/34 
f 78/117/34 80/114/34 83/118/34 
f 84/119/34 83/118/34 85/120/34 
f 86/121/34 87/122/34 88/123/34 
f 88/123/34 89/124/34 90/125/34 
f 90/125/34 91/126/34 92/127/34 
f 92/127/34 84/119/34 93/128/34 
f 94/129/34 86/121/34 95/130/34 
f 95/130/34 88/123/34 96/131/34 
f 96/131/34 90/125/34 97/132/34 
f 97/132/34 92/127/34 98/133/34 
f 99/134/34 94/129/34 100/135/34 
f 100/135/34 95/130/34 101/136/34 
f 101/136/34 96/131/34 102/137/34 
f 102/137/34 97/132/34 103/138/34 
f 104/139/34 99/134/34 105/140/34 
f 105/140/34 100/135/34 106/141/34 
f 106/141/34 101/136/34 107/142/34 
f 107/142/34 102/137/34 108/143/34 
f 109/144/34 104/139/34 110/145/34 
f 110/145/34 105/140/34 111/146/34 
f 111/146/34 106/141/34 112/147/34 
f 112/147/34 107/142/34 113/148/34 
f 114/149/34 109/144/34 115/150/34 
f 115/150/34 110/145/34 116/151/34 
f 116/151/34 111/146/34 117/152/34 
f 117/152/34 112/147/34 118/153/34 
f 119/154/34 116/151/34 120/155/34 
f 120/155/34 117/152/34 121/156/34 
s off
f 86/121/35 122/129/35 123/121/35 
f 94/129/36 124/134/36 122/129/36 
f 103/138/37 125/133/37 126/138/37 
f 99/134/38 127/139/38 124/134/38 
f 108/143/39 126/138/39 128/143/39 
f 104/139/40 129/144/40 127/139/40 
f 113/148/41 128/143/41 130/148/41 
f 109/144/42 131/149/42 129/144/42 
f 114/149/43 132/150/43 131/149/43 
f 115/150/44 133/151/44 132/150/44 
f 118/153/45 130/148/45 134/153/45 
f 116/151/46 135/154/46 133/151/46 
f 119/154/47 136/155/47 135/154/47 
f 120/155/48 137/156/48 136/155/48 
f 121/156/49 134/153/49 137/156/49 
f 79/113/50 138/112/50 139/113/50 
f 81/115/51 139/113/51 140/115/51 
f 82/116/52 141/157/52 142/116/52 
f 143/157/51 140/115/51 141/157/51 
f 83/118/53 142/116/53 144/118/53 
f 89/124/54 145/122/54 146/124/54 
f 91/126/55 146/124/55 147/126/55 
f 84/119/56 147/126/56 148/119/56 
f 78/117/57 148/119/57 138/117/57 
f 85/120/58 144/118/58 149/120/58 
f 87/122/59 150/121/59 145/122/59 
f 93/128/60 149/120/60 151/128/60 
f 98/133/61 151/128/61 125/133/61 
f 86/121/62 123/121/62 150/121/62 
f 126/138/37 152/133/37 153/138/37 
f 124/134/38 154/139/38 155/134/38 
f 128/143/39 153/138/39 156/143/39 
f 127/139/40 157/144/40 154/139/40 
f 130/148/41 156/143/41 158/148/41 
f 129/144/63 159/149/63 157/144/63 
f 131/149/64 160/150/64 159/149/64 
f 132/150/65 161/151/65 160/150/65 
f 134/153/66 158/148/66 162/153/66 
f 133/151/67 163/154/67 161/151/67 
f 135/154/68 164/155/68 163/154/68 
f 136/155/69 165/156/69 164/155/69 
f 137/156/70 162/153/70 165/156/70 
f 144/118/71 151/128/71 149/120/71 
s 1
f 79/113/34 81/115/34 80/114/34 
f 81/115/34 143/157/34 82/116/34 
f 80/114/34 82/116/34 83/118/34 
f 84/119/34 78/117/34 83/118/34 
f 87/122/34 89/124/34 88/123/34 
f 89/124/34 91/126/34 90/125/34 
f 91/126/34 84/119/34 92/127/34 
f 84/119/34 85/120/34 93/128/34 
f 86/121/34 88/123/34 95/130/34 
f 88/123/34 90/125/34 96/131/34 
f 90/125/34 92/127/34 97/132/34 
f 92/127/34 93/128/34 98/133/34 
f 94/129/34 95/130/34 100/135/34 
f 95/130/34 96/131/34 101/136/34 
f 96/131/34 97/132/34 102/137/34 
f 97/132/34 98/133/34 103/138/34 
f 99/134/34 100/135/34 105/140/34 
f 100/135/34 101/136/34 106/141/34 
f 101/136/34 102/137/34 107/142/34 
f 102/137/34 103/138/34 108/143/34 
f 104/139/34 105/140/34 110/145/34 
f 105/140/34 106/141/34 111/146/34 
f 106/141/34 107/142/34 112/147/34 
f 107/142/34 108/143/34 113/148/34 
f 109/144/34 110/145/34 115/150/34 
f 110/145/34 111/146/34 116/151/34 
f 111/146/34 112/147/34 117/152/34 
f 112/147/34 113/148/34 118/153/34 
f 116/151/34 117/152/34 120/155/34 
f 117/152/34 118/153/34 121/156/34 
s off
f 86/121/35 94/129/35 122/129/35 
f 94/129/36 99/134/36 124/134/36 
f 103/138/37 98/133/37 125/133/37 
f 99/134/38 104/139/38 127/139/38 
f 108/143/39 103/138/39 126/138/39 
f 104/139/72 109/144/72 129/144/72 
f 113/148/41 108/143/41 128/143/41 
f 109/144/73 114/149/73 131/149/73 
f 114/149/43 115/150/43 132/150/43 
f 115/150/44 116/151/44 133/151/44 
f 118/153/45 113/148/45 130/148/45 
f 116/151/46 119/154/46 135/154/46 
f 119/154/68 120/155/68 136/155/68 
f 120/155/48 121/156/48 137/156/48 
f 121/156/49 118/153/49 134/153/49 
f 79/113/50 78/112/50 138/112/50 
f 81/115/51 79/113/51 139/113/51 
f 82/116/52 143/157/52 141/157/52 
f 143/157/51 81/115/51 140/115/51 
f 83/118/53 82/116/53 142/116/53 
f 89/124/54 87/122/54 145/122/54 
f 91/126/55 89/124/55 146/124/55 
f 84/119/56 91/126/56 147/126/56 
f 78/117/57 84/119/57 148/119/57 
f 85/120/58 83/118/58 144/118/58 
f 87/122/59 86/121/59 150/121/59 
f 93/128/60 85/120/60 149/120/60 
f 98/133/61 93/128/61 151/128/61 
f 86/121/62 123/121/62 123/121/62 
f 122/129/36 124/134/36 155/134/36 
f 126/138/37 125/133/37 152/133/37 
f 124/134/38 127/139/38 154/139/38 
f 128/143/39 126/138/39 153/138/39 
f 127/139/40 129/144/40 157/144/40 
f 130/148/41 128/143/41 156/143/41 
f 129/144/63 131/149/63 159/149/63 
f 131/149/64 132/150/64 160/150/64 
f 132/150/65 133/151/65 161/151/65 
f 134/153/45 130/148/45 158/148/45 
f 133/151/67 135/154/67 163/154/67 
f 135/154/74 136/155/74 164/155/74 
f 136/155/69 137/156/69 165/156/69 
f 137/156/70 134/153/70 162/153/70 
f 139/113/75 138/112/75 148/119/75 
f 144/118/76 142/116/76 141/157/76 
f 148/119/77 141/157/77 139/113/77 
f 148/119/78 144/118/78 141/157/78 
f 148/119/79 147/126/79 144/118/79 
f 155/134/80 154/139/80 157/144/80 
f 163/154/76 165/156/76 162/153/76 
f 157/144/81 159/149/81 160/150/81 
f 122/129/82 155/134/82 157/144/82 
f 162/153/83 158/148/83 163/154/83 
f 125/133/84 151/128/84 144/118/84 
f 125/133/85 144/118/85 147/126/85 
f 125/133/76 147/126/76 146/124/76 
f 146/124/76 145/122/76 150/121/76 
f 150/121/86 122/129/86 157/144/86 
f 146/124/87 150/121/87 157/144/87 
f 157/144/88 160/150/88 161/151/88 
f 161/151/89 163/154/89 158/148/89 
f 157/144/90 161/151/90 158/148/90 
f 158/148/91 156/143/91 153/138/91 
f 157/144/92 158/148/92 153/138/92 
f 146/124/93 157/144/93 153/138/93 
f 146/124/94 153/138/94 125/133/94 
# 169 faces

