# 3ds Max Wavefront OBJ Exporter v0.99 - (c)2007 guruware
# File Created: 07.06.2023 20:46:56

mtllib kingjulien_brt_izq.mtl

#
# object kingjulien_brt_izq
#

v  -124.0563 4.0385 41.6767
v  -124.5542 4.0860 41.2191
v  -123.9064 4.1621 41.5420
v  -124.4338 4.1675 41.1563
v  -123.9947 4.3956 41.7124
v  -124.5547 4.2915 41.2154
v  -124.1566 4.1629 41.7883
v  -124.6194 4.1857 41.3226
v  -124.5224 4.1687 41.1162
v  -124.6651 4.1854 41.2661
# 10 vertices

vn 0.3134 -0.8472 -0.4290
vn 0.3214 -0.8341 -0.4483
vn 0.5918 -0.0660 -0.8034
vn 0.5689 -0.1276 -0.8125
vn -0.0831 0.9921 -0.0942
vn -0.0854 0.9957 -0.0370
vn -0.5765 0.6145 0.5385
vn -0.4446 0.7571 0.4788
vn 0.0452 0.9507 -0.3069
vn 0.4105 -0.0796 -0.9084
vn 0.4740 0.2556 -0.8426
vn 0.2438 -0.7918 -0.5600
vn -0.5220 0.7433 0.4183
vn -0.7771 -0.0026 0.6294
vn -0.7771 -0.0132 0.6293
vn -0.5045 -0.7582 0.4130
vn -0.4734 -0.7664 0.4342
# 17 vertex normals

vt 0.5835 0.2715 0.0000
vt 0.5918 0.2212 0.0000
vt 0.6490 0.1792 0.0000
vt 0.6753 0.3608 0.0000
vt 0.5972 0.3232 0.0000
vt 0.7979 0.1850 0.0000
vt 0.7793 0.2192 0.0000
vt 0.8072 0.2217 0.0000
vt 0.7881 0.2612 0.0000
vt 0.8116 0.2969 0.0000
vt 0.7906 0.3008 0.0000
vt 0.8164 0.3364 0.0000
# 12 texture coords

o kingjulien_brt_izq
g kingjulien_brt_izq
usemtl julien
s 1
f 1/3/1 2/6/2 3/2/3 
f 2/6/2 4/7/4 3/2/3 
f 3/2/3 4/7/4 5/1/5 
f 4/7/4 6/9/6 5/1/5 
f 5/1/5 6/9/6 7/5/7 
f 6/9/6 8/11/8 7/5/7 
f 6/9/9 4/7/10 9/8/11 
f 9/8/11 4/7/10 2/6/12 
f 6/9/13 10/10/14 8/11/15 
f 10/10/14 2/12/16 8/11/15 
f 8/11/17 2/12/17 1/4/17 
f 1/4/17 7/5/17 8/11/17 
# 12 faces

