# 3ds Max Wavefront OBJ Exporter v0.99 - (c)2007 guruware
# File Created: 07.06.2023 20:50:47

mtllib kingjulien_legd_izq.mtl

#
# object kingjulien_legd_izq
#

v  -123.8838 1.7805 41.6972
v  -123.9413 1.2315 41.8157
v  -124.0588 1.8810 41.7551
v  -124.0347 1.2457 41.8550
v  -124.0640 1.8785 41.9160
v  -124.0576 1.1330 41.9662
v  -123.9600 1.2458 41.9235
v  -123.8678 1.8708 41.9161
# 8 vertices

vn -0.3896 -0.1552 -0.9078
vn -0.4009 -0.1568 -0.9026
vn -0.8645 -0.1089 -0.4907
vn -0.8351 -0.0878 -0.5431
vn -0.9985 -0.0359 0.0422
vn -0.6511 0.0454 0.7577
vn 0.3347 0.0661 0.9400
vn 0.9722 -0.1412 0.1869
vn 0.9808 -0.1349 0.1406
vn 0.9911 -0.1331 0.0044
vn 0.8755 -0.2512 -0.4129
vn -0.0002 0.0118 0.9999
vn -0.0001 0.0147 0.9999
vn -0.4601 0.0083 0.8878
# 14 vertex normals

vt 0.7505 0.1118 0.0000
vt 0.5537 0.0957 0.0000
vt 0.7793 0.0600 0.0000
vt 0.5601 0.0410 0.0000
vt 0.7779 0.0307 0.0000
vt 0.5303 0.0259 0.0000
vt 0.5606 0.0112 0.0000
vt 0.5655 0.1504 0.0000
vt 0.7740 0.1626 0.0000
vt 0.7505 0.1118 0.0000
vt 0.7759 -0.0034 0.0000
vt 0.7779 0.0307 0.0000
# 12 texture coords

o kingjulien_legd_izq
g kingjulien_legd_izq
usemtl julien
s 1
f 1/1/1 2/2/2 3/3/3 
f 2/2/2 4/4/4 3/3/3 
f 3/3/3 4/4/4 5/5/5 
f 4/4/4 6/6/6 5/5/5 
f 5/5/5 6/6/6 7/7/7 
f 7/8/8 2/2/9 8/9/10 
f 2/2/9 1/10/11 8/9/10 
f 7/7/12 8/11/13 5/12/14 
# 8 faces

