# 3ds Max Wavefront OBJ Exporter v0.99 - (c)2007 guruware
# File Created: 07.06.2023 20:52:01

mtllib kingjulien_colau.mtl

#
# object kingjulien_colau
#

v  -123.9548 2.8182 42.0783
v  -124.6507 2.9983 42.9106
v  -123.9409 2.8035 42.0899
v  -124.4829 2.8080 43.0781
v  -123.9548 2.7900 42.0783
v  -124.6311 2.6368 42.8871
v  -123.9686 2.8035 42.0667
v  -124.8453 2.8080 42.7750
v  -124.6945 3.0003 42.9628
v  -124.6760 2.6344 42.9408
# 10 vertices

vn 0.5628 0.7685 0.3044
vn 0.5640 0.7670 0.3059
vn 0.8767 -0.0254 0.4804
vn 0.8764 0.0355 0.4804
vn 0.0922 -0.9897 -0.1095
vn 0.0922 -0.9896 -0.1103
vn -0.6276 -0.0247 -0.7781
vn -0.6279 0.0356 -0.7775
vn -0.3999 0.7683 -0.4998
vn -0.4008 0.7669 -0.5011
vn 0.4966 0.7776 0.3857
vn 0.0187 0.9996 -0.0224
vn -0.4674 0.7776 -0.4205
vn 0.4702 -0.8066 0.3582
vn 0.0213 -0.9994 -0.0255
vn -0.4358 -0.8066 -0.3994
# 16 vertex normals

vt 0.4434 0.6538 0.0000
vt 0.3531 0.6626 0.0000
vt 0.5347 0.6626 0.0000
vt 0.4439 0.8647 0.0000
vt 0.4434 0.6665 0.0000
vt 0.4014 0.8647 0.0000
vt 0.4859 0.8647 0.0000
# 7 texture coords

o kingjulien_colau
g kingjulien_colau
usemtl julien
s 1
f 1/4/1 2/5/2 3/6/3 
f 2/5/2 4/2/4 3/6/3 
f 3/6/3 4/2/4 5/4/5 
f 4/2/4 6/5/6 5/4/5 
f 5/4/5 6/5/6 7/7/7 
f 6/5/6 8/3/8 7/7/7 
f 7/7/7 8/3/8 1/4/9 
f 8/3/8 2/5/10 1/4/9 
f 4/2/11 2/5/12 9/1/12 
f 2/5/12 8/3/13 9/1/12 
f 4/2/14 10/1/15 6/5/15 
f 10/1/15 8/3/16 6/5/15 
# 12 faces

