# 3ds Max Wavefront OBJ Exporter v0.99 - (c)2007 guruware
# File Created: 07.06.2023 20:47:19

mtllib kingjulien_brdw_izq.mtl

#
# object kingjulien_btrdw_izq
#

v  -125.0347 4.1657 40.8226
v  -124.6651 4.1854 41.2661
v  -125.0189 4.1977 40.7702
v  -124.5547 4.2915 41.2154
v  -124.5224 4.1687 41.1162
v  -124.9815 4.1657 40.7609
v  -125.0180 4.1190 40.7787
v  -124.5542 4.0860 41.2191
# 8 vertices

vn -0.4677 0.8099 0.3539
vn -0.5301 0.7493 0.3968
vn -0.3773 0.8963 0.2332
vn 0.0452 0.9507 -0.3069
vn 0.4740 0.2556 -0.8426
vn 0.4426 0.6860 -0.5776
vn 0.6103 -0.0817 -0.7879
vn 0.6093 0.0876 -0.7881
vn 0.4841 -0.6171 -0.6203
vn -0.4819 -0.7511 0.4512
vn -0.4865 -0.7465 0.4539
vn -0.5451 -0.6820 0.4876
vn -0.5586 -0.6655 0.4951
vn 0.4106 -0.7689 -0.4901
# 14 vertex normals

vt 0.7979 0.1850 0.0000
vt 0.8072 0.2217 0.0000
vt 0.7881 0.2612 0.0000
vt 0.9869 0.2456 0.0000
vt 0.8116 0.2969 0.0000
vt 0.9849 0.2676 0.0000
vt 0.9981 0.2827 0.0000
vt 0.8164 0.3364 0.0000
vt 0.9854 0.2241 0.0000
vt 0.9932 0.2046 0.0000
# 10 texture coords

o kingjulien_btrdw_izq
g kingjulien_btrdw_izq
usemtl julien
s 1
f 1/6/1 2/5/2 3/4/3 
f 2/5/2 4/3/4 3/4/3 
f 3/4/3 4/3/4 5/2/5 
f 3/4/6 5/2/7 6/9/8 
f 5/2/7 7/10/9 6/9/8 
f 8/8/10 2/5/11 7/7/12 
f 2/5/11 1/6/13 7/7/12 
f 8/1/14 7/10/14 5/2/14 
# 8 faces

