# 3ds Max Wavefront OBJ Exporter v0.99 - (c)2007 guruware
# File Created: 07.06.2023 20:52:29

mtllib kingjulien_colam.mtl

#
# object kingjulien_colam
#

v  -124.6945 3.0003 42.9628
v  -125.3554 3.0457 43.7532
v  -124.4829 2.8080 43.0781
v  -125.1333 2.7988 43.9691
v  -124.6760 2.6344 42.9408
v  -125.3568 2.5748 43.7549
v  -124.8453 2.8080 42.7750
v  -125.6072 2.7988 43.5728
v  -125.3961 3.0433 43.8019
v  -125.3977 2.5760 43.8038
# 10 vertices

vn 0.5028 0.7785 0.3757
vn 0.5022 0.7793 0.3748
vn 0.8064 -0.0585 0.5885
vn 0.8074 -0.0281 0.5893
vn 0.0360 -0.9984 -0.0433
vn -0.7217 -0.0588 -0.6897
vn -0.7229 -0.0282 -0.6903
vn -0.4582 0.7787 -0.4285
vn -0.4578 0.7795 -0.4276
vn 0.4593 0.7819 0.4215
vn -0.0235 0.9993 0.0281
vn -0.4962 0.7819 -0.3775
vn 0.4399 -0.8099 0.3881
vn -0.0123 -0.9998 0.0147
vn -0.4598 -0.8099 -0.3643
# 15 vertex normals

vt 0.3521 0.4609 0.0000
vt 0.5474 0.4609 0.0000
vt 0.4434 0.6538 0.0000
vt 0.4434 0.4653 0.0000
vt 0.3531 0.6626 0.0000
vt 0.5347 0.6626 0.0000
vt 0.3521 0.4609 0.0000
vt 0.4434 0.4536 0.0000
vt 0.5474 0.4609 0.0000
vt 0.4434 0.4653 0.0000
# 10 texture coords

o kingjulien_colam
g kingjulien_colam
usemtl julien
s 1
f 1/3/1 2/4/2 3/5/3 
f 2/4/2 4/1/4 3/5/3 
f 3/5/3 4/1/4 5/3/5 
f 4/1/4 6/4/5 5/3/5 
f 5/3/5 6/4/5 7/6/6 
f 6/4/5 8/2/7 7/6/6 
f 7/6/6 8/2/7 1/3/8 
f 8/2/7 2/4/9 1/3/8 
f 4/7/10 2/10/11 9/8/11 
f 2/10/11 8/9/12 9/8/11 
f 4/7/13 10/8/14 6/10/14 
f 10/8/14 8/9/15 6/10/14 
# 12 faces

