# 3ds Max Wavefront OBJ Exporter v0.99 - (c)2007 guruware
# File Created: 07.06.2023 20:45:52

mtllib kingjulien_brdw_der.mtl

#
# object kingjulien_btrdw_der
#

v  -122.9073 4.1687 42.4668
v  -122.9993 4.2915 42.5161
v  -122.4790 4.1977 42.8942
v  -123.0297 4.1854 42.6337
v  -122.5278 4.1657 42.9190
v  -122.4875 4.1190 42.8949
v  -123.0031 4.0860 42.5163
v  -122.4764 4.1657 42.8557
# 8 vertices

vn 0.7454 0.2556 -0.6156
vn 0.2940 0.9507 -0.0988
vn -0.1628 0.8963 0.4126
vn -0.3184 0.7107 0.6273
vn -0.4858 0.1336 0.8638
vn -0.3884 -0.6655 0.6374
vn -0.4640 -0.3973 0.7918
vn -0.3474 -0.7532 0.5586
vn -0.3589 -0.7511 0.5541
vn 0.4901 0.6860 -0.5378
vn 0.5337 0.6091 -0.5866
vn 0.4423 -0.7474 -0.4957
vn 0.4221 -0.7730 -0.4736
vn 0.4869 -0.6267 -0.6084
# 14 vertex normals

vt 0.7979 0.1850 0.0000
vt 0.8072 0.2217 0.0000
vt 0.9869 0.2456 0.0000
vt 0.8116 0.2969 0.0000
vt 0.9849 0.2676 0.0000
vt 0.9981 0.2827 0.0000
vt 0.9854 0.2241 0.0000
vt 0.9932 0.2046 0.0000
vt 0.8072 0.2217 0.0000
vt 0.7881 0.2612 0.0000
vt 0.8116 0.2969 0.0000
vt 0.8164 0.3364 0.0000
# 12 texture coords

o kingjulien_btrdw_der
g kingjulien_btrdw_der
usemtl julien
s 1
f 1/9/1 2/10/2 3/3/3 
f 2/10/2 4/4/4 3/3/3 
f 3/3/3 4/4/4 5/5/5 
f 4/4/4 6/6/6 5/5/5 
f 4/11/7 7/12/8 6/6/9 
f 3/3/10 8/7/11 1/2/12 
f 8/7/11 7/1/13 1/2/12 
f 7/1/14 8/7/14 6/8/14 
# 8 faces

