# 3ds Max Wavefront OBJ Exporter v0.99 - (c)2007 guruware
# File Created: 07.06.2023 20:48:51

mtllib kingjulien_legd_der.mtl

#
# object kingjulien_legd_der
#

v  -123.8014 1.2458 42.0560
v  -123.8105 1.8708 41.9640
v  -123.6987 1.2315 42.0186
v  -123.5922 1.7805 41.9410
v  -123.6182 1.8810 42.1236
v  -123.7209 1.2457 42.1175
v  -123.7757 1.8785 42.1571
v  -123.8262 1.1330 42.1597
# 8 vertices

vn -0.3560 -0.1412 -0.9238
vn -0.1791 -0.1148 -0.9771
vn -0.1475 -0.1765 -0.9732
vn 0.9182 -0.2464 -0.3103
vn 0.9580 -0.1705 0.2306
vn 0.9585 -0.1571 0.2378
vn 0.2988 -0.0574 0.9526
vn 0.6823 -0.0878 0.7258
vn 0.1351 -0.0359 0.9902
vn -0.6305 0.0454 0.7749
vn -0.9844 0.0661 -0.1631
vn -0.7924 0.0083 0.6099
vn -0.9841 0.0147 0.1770
vn -0.9841 0.0118 0.1771
# 14 vertex normals

vt 0.7793 0.0600 0.0000
vt 0.5601 0.0410 0.0000
vt 0.7779 0.0307 0.0000
vt 0.5606 0.0112 0.0000
vt 0.7740 0.1626 0.0000
vt 0.5660 0.1504 0.0000
vt 0.5542 0.0957 0.0000
vt 0.5308 0.0259 0.0000
vt 0.7505 0.1118 0.0000
vt 0.7793 0.0600 0.0000
vt 0.7779 0.0307 0.0000
vt 0.7759 -0.0034 0.0000
# 12 texture coords

o kingjulien_legd_der
g kingjulien_legd_der
usemtl julien
s 1
f 1/6/1 2/5/2 3/7/3 
f 2/5/2 4/9/4 3/7/3 
f 3/7/3 4/9/4 5/10/5 
f 3/7/6 5/1/7 6/2/8 
f 5/1/7 7/3/9 6/2/8 
f 6/2/8 7/3/9 8/8/10 
f 7/3/9 1/4/11 8/8/10 
f 7/11/12 2/12/13 1/4/14 
# 8 faces

