# Blender 3.5.1
# www.blender.org
mtllib BrazoDerKowalski.mtl
o BrazoDerKowalski
v 0.284786 0.329277 0.073632
v 0.375954 0.310559 0.105555
v 0.378796 0.329011 0.073639
v 0.291766 0.315975 0.091966
v 0.291766 0.315975 0.091966
v 0.375954 0.310559 0.041722
v 0.375954 0.310559 0.105555
v 0.291766 0.315975 0.055297
v 0.291766 0.315975 0.055297
v 0.375954 0.310559 0.041722
v 0.245514 0.319485 0.073632
v 0.245514 0.319485 0.073632
v 0.443914 0.305883 0.043870
v 0.443914 0.305883 0.103393
v 0.490088 0.306275 0.060870
v 0.490081 0.306275 0.086406
v 0.498198 0.310421 0.073639
v 0.447315 0.323469 0.073639
v 0.490081 0.306275 0.086406
v 0.498198 0.310421 0.073639
v 0.443914 0.305883 0.103393
v 0.443914 0.305883 0.043870
v 0.490088 0.306275 0.060870
vn -0.0642 -0.9979 -0.0000
vn -0.1452 0.9894 -0.0046
vn 0.0357 0.8593 0.5101
vn 0.0381 0.9993 -0.0029
vn -0.0905 0.7894 0.6072
vn -0.0619 0.8061 -0.5885
vn 0.0237 0.8637 -0.5034
vn -0.2419 0.9703 -0.0000
vn -0.0689 -0.9976 -0.0000
vn -0.0757 -0.9971 -0.0000
vn -0.0354 -0.9994 -0.0000
vn -0.0665 -0.9978 -0.0000
vn 0.1197 -0.9928 -0.0000
vn 0.4550 -0.8905 0.0001
vn 0.1529 0.9882 0.0009
vn 0.2123 0.8653 0.4541
vn 0.2484 0.9687 -0.0000
vn 0.1173 0.8501 0.5135
vn 0.1197 0.8488 -0.5151
vn 0.2123 0.8654 -0.4539
vt 0.292236 0.195801
vt 0.305664 0.187988
vt 0.292236 0.195801
vt 0.300049 0.190430
vt 0.300049 0.190430
vt 0.278809 0.187988
vt 0.305664 0.187988
vt 0.284668 0.190430
vt 0.284668 0.190430
vt 0.278809 0.187988
vt 0.292236 0.191895
vt 0.292236 0.191895
vt 0.279785 0.186035
vt 0.304688 0.186035
vt 0.286865 0.186035
vt 0.297607 0.186035
vt 0.292236 0.187988
vt 0.292236 0.193359
vt 0.297607 0.186035
vt 0.292236 0.187988
vt 0.304688 0.186035
vt 0.279785 0.186035
vt 0.286865 0.186035
s 0
usemtl Material.001
f 5/5/1 6/6/1 7/7/1
f 8/8/1 6/6/1 5/5/1
s 1
f 1/1/2 2/2/3 3/3/4
f 4/4/5 2/2/3 1/1/2
f 9/9/6 3/3/4 10/10/7
f 1/1/2 3/3/4 9/9/6
f 11/11/8 4/4/5 1/1/2
f 5/5/9 12/12/10 8/8/9
f 13/13/11 7/7/12 6/6/12
f 14/14/11 7/7/12 13/13/11
f 15/15/13 14/14/11 13/13/11
f 16/16/13 14/14/11 15/15/13
f 17/17/14 16/16/13 15/15/13
f 18/18/15 19/19/16 20/20/17
f 21/21/18 19/19/16 18/18/15
f 3/3/4 21/21/18 18/18/15
f 2/2/3 21/21/18 3/3/4
f 18/18/15 10/10/7 3/3/4
f 22/22/19 10/10/7 18/18/15
f 9/9/6 11/11/8 1/1/2
f 23/23/20 18/18/15 20/20/17
f 22/22/19 18/18/15 23/23/20
