# Blender 3.5.1
# www.blender.org
mtllib BrazoDerSkipper.mtl
o BrazoDerSkipper
v 0.014071 0.000566 0.000005
v 0.105246 -0.018151 0.031916
v 0.108088 0.000301 -0.000000
v 0.021058 -0.012736 0.018327
v 0.021058 -0.012736 0.018327
v 0.105246 -0.018151 -0.031917
v 0.105246 -0.018151 0.031916
v 0.021065 -0.012736 -0.018330
v 0.021065 -0.012736 -0.018330
v 0.105246 -0.018151 -0.031917
v 0.000000 0.000000 0.000000
v 0.003712 -0.013833 0.012774
v 0.003719 -0.013833 -0.012762
v 0.003712 -0.013833 0.012774
v 0.173206 -0.022828 -0.029769
v 0.173213 -0.022828 0.029766
v 0.219380 -0.022435 -0.012769
v 0.219373 -0.022435 0.012767
v 0.227490 -0.018290 0.000000
v 0.176607 -0.005242 0.000000
v 0.219373 -0.022435 0.012767
v 0.227490 -0.018290 0.000000
v 0.173213 -0.022828 0.029766
v 0.173206 -0.022828 -0.029769
v 0.003719 -0.013833 -0.012762
v 0.219380 -0.022435 -0.012769
vn -0.0673 0.9968 -0.0433
vn 0.0357 0.8593 0.5102
vn 0.0381 0.9993 -0.0029
vn -0.0905 0.7694 0.6323
vn -0.0105 -0.9999 -0.0000
vn -0.0665 -0.9978 -0.0000
vn -0.0106 -0.9999 -0.0000
vn -0.0883 0.7993 -0.5945
vn 0.0237 0.8637 -0.5034
vn -0.1145 0.9922 -0.0498
vn -0.2761 0.6110 0.7419
vn 0.0631 -0.9980 -0.0000
vn -0.0354 -0.9994 -0.0000
vn 0.1197 -0.9928 -0.0000
vn 0.1196 -0.9928 -0.0000
vn 0.4549 -0.8905 0.0001
vn 0.1529 0.9882 0.0008
vn 0.2123 0.8653 0.4540
vn 0.2484 0.9687 -0.0000
vn 0.1173 0.8501 0.5133
vn 0.1197 0.8488 -0.5151
vn -0.1712 0.7197 -0.6729
vn 0.2123 0.8654 -0.4539
vt 0.046539 0.451660
vt 0.051239 0.449219
vt 0.046539 0.451660
vt 0.049225 0.449707
vt 0.049225 0.449707
vt 0.041840 0.449219
vt 0.051239 0.449219
vt 0.043854 0.449707
vt 0.043854 0.449707
vt 0.041840 0.449219
vt 0.046539 0.451660
vt 0.048401 0.449707
vt 0.044647 0.449707
vt 0.048401 0.449707
vt 0.042145 0.448242
vt 0.050903 0.448242
vt 0.044647 0.448242
vt 0.048401 0.448242
vt 0.046539 0.449219
vt 0.046539 0.451172
vt 0.048401 0.448242
vt 0.046539 0.449219
vt 0.050903 0.448242
vt 0.042145 0.448242
vt 0.044647 0.449707
vt 0.044647 0.448242
s 1
usemtl Material.001
f 1/1/1 2/2/2 3/3/3
f 4/4/4 2/2/2 1/1/1
f 5/5/5 6/6/6 7/7/6
f 8/8/7 6/6/6 5/5/5
f 9/9/8 3/3/3 10/10/9
f 1/1/1 3/3/3 9/9/8
f 11/11/10 4/4/4 1/1/1
f 12/12/11 4/4/4 11/11/10
f 5/5/5 13/13/12 8/8/7
f 14/14/12 13/13/12 5/5/5
f 15/15/13 7/7/6 6/6/6
f 16/16/13 7/7/6 15/15/13
f 17/17/14 16/16/13 15/15/13
f 18/18/15 16/16/13 17/17/14
f 19/19/16 18/18/15 17/17/14
f 20/20/17 21/21/18 22/22/19
f 23/23/20 21/21/18 20/20/17
f 3/3/3 23/23/20 20/20/17
f 2/2/2 23/23/20 3/3/3
f 20/20/17 10/10/9 3/3/3
f 24/24/21 10/10/9 20/20/17
f 1/1/1 25/25/22 11/11/10
f 9/9/8 25/25/22 1/1/1
f 26/26/23 20/20/17 22/22/19
f 24/24/21 20/20/17 26/26/23
