# Blender 3.5.1
# www.blender.org
mtllib BrazoDerRico.mtl
o BrazoDerRico
v 0.046203 0.009780 0.000005
v 0.137377 -0.008937 0.031916
v 0.140220 0.009526 0.000005
v 0.053196 -0.003510 0.018334
v 0.053196 -0.003510 0.018334
v 0.137377 -0.008937 -0.031917
v 0.137377 -0.008937 0.031916
v 0.053189 -0.003510 -0.018323
v 0.053189 -0.003510 -0.018323
v 0.137377 -0.008937 -0.031917
v 0.000000 0.000000 0.000000
v 0.000000 0.000000 0.000000
v 0.205344 -0.013602 -0.029762
v 0.205344 -0.013602 0.029761
v 0.251511 -0.013221 -0.012769
v 0.251504 -0.013221 0.012767
v 0.259622 -0.009076 0.000000
v 0.208738 0.003972 -0.000000
v 0.251504 -0.013221 0.012767
v 0.259622 -0.009076 0.000000
v 0.205344 -0.013602 0.029761
v 0.205344 -0.013602 -0.029762
v 0.251511 -0.013221 -0.012769
vn -0.0643 -0.9979 -0.0000
vn -0.0658 -0.9978 -0.0000
vn -0.1260 0.9920 -0.0045
vn 0.0356 0.8592 0.5104
vn 0.0380 0.9993 -0.0028
vn -0.0830 0.7915 0.6055
vn -0.0549 0.8077 -0.5871
vn 0.0237 0.8637 -0.5035
vn -0.2071 0.9783 -0.0000
vn -0.0354 -0.9994 -0.0000
vn -0.0665 -0.9978 -0.0000
vn 0.1195 -0.9928 -0.0000
vn 0.1194 -0.9928 -0.0000
vn 0.4549 -0.8905 0.0001
vn 0.1530 0.9882 0.0008
vn 0.2124 0.8653 0.4540
vn 0.2484 0.9687 -0.0000
vn 0.1174 0.8502 0.5132
vn 0.1196 0.8489 -0.5149
vn 0.2124 0.8654 -0.4539
vt 1.133789 0.152832
vt 1.145508 0.145996
vt 1.133789 0.152832
vt 1.140625 0.147949
vt 1.140625 0.147949
vt 1.121094 0.145996
vt 1.145508 0.145996
vt 1.126953 0.147949
vt 1.126953 0.147949
vt 1.121094 0.145996
vt 1.133789 0.149414
vt 1.133789 0.149414
vt 1.122070 0.144043
vt 1.144531 0.144043
vt 1.128906 0.144531
vt 1.137695 0.144531
vt 1.133789 0.145996
vt 1.133789 0.150879
vt 1.137695 0.144531
vt 1.133789 0.145996
vt 1.144531 0.144043
vt 1.122070 0.144043
vt 1.128906 0.144531
s 0
usemtl Material.001
f 5/5/1 6/6/1 7/7/1
f 8/8/1 6/6/1 5/5/1
f 5/5/2 12/12/2 8/8/2
s 1
f 1/1/3 2/2/4 3/3/5
f 4/4/6 2/2/4 1/1/3
f 9/9/7 3/3/5 10/10/8
f 1/1/3 3/3/5 9/9/7
f 11/11/9 4/4/6 1/1/3
f 13/13/10 7/7/11 6/6/11
f 14/14/10 7/7/11 13/13/10
f 15/15/12 14/14/10 13/13/10
f 16/16/13 14/14/10 15/15/12
f 17/17/14 16/16/13 15/15/12
f 18/18/15 19/19/16 20/20/17
f 21/21/18 19/19/16 18/18/15
f 3/3/5 21/21/18 18/18/15
f 2/2/4 21/21/18 3/3/5
f 18/18/15 10/10/8 3/3/5
f 22/22/19 10/10/8 18/18/15
f 9/9/7 11/11/9 1/1/3
f 23/23/20 18/18/15 20/20/17
f 22/22/19 18/18/15 23/23/20
