# Blender 3.5.1
# www.blender.org
mtllib BrazoDerMono.mtl
o BrazoDerMono
v -0.669129 0.032534 -0.008281
v -0.724511 0.030488 -0.008168
v -0.672876 0.030312 0.022846
v -0.721256 0.030199 0.024504
v -0.841517 0.034156 -0.011383
v -0.828976 -0.008368 0.029111
v -0.725502 -0.002042 0.026203
v -0.844372 0.034842 0.030487
v -0.828976 -0.008368 0.029111
v -0.828248 -0.008519 -0.012775
v -0.671563 -0.001287 0.024376
v -0.725440 -0.001109 -0.009619
v -0.667663 -0.005636 -0.007215
v -0.725502 -0.002042 0.026203
v -0.828248 -0.008519 -0.012775
v -0.828976 -0.008368 0.029111
v -0.659040 0.029617 -0.033736
v -0.714108 0.026967 -0.038330
v -0.669129 0.032534 -0.008281
v -0.724511 0.030488 -0.008168
v -0.824365 0.025218 -0.050119
v -0.841517 0.034156 -0.011383
v -0.828248 -0.008519 -0.012775
v -0.816195 -0.012824 -0.052010
v -0.667663 -0.005636 -0.007215
v -0.712348 -0.002423 -0.042051
v -0.658687 -0.005455 -0.036910
v -0.725440 -0.001109 -0.009619
v -0.816195 -0.012824 -0.052010
v -0.828248 -0.008519 -0.012775
v -0.599532 -0.020761 0.047803
v -0.652459 -0.001468 0.059302
v -0.671563 -0.001287 0.024376
v -0.667663 -0.005636 -0.007215
v -0.566452 -0.016984 -0.015918
v -0.558357 -0.049865 0.040734
v -0.533600 -0.006047 0.010235
v -0.538147 -0.008993 -0.014533
v -0.545153 0.006298 -0.032774
v -0.596779 -0.008760 -0.050758
v -0.658687 -0.005455 -0.036910
v -0.640043 -0.005274 -0.060350
v -0.640633 0.022170 -0.056152
v -0.659040 0.029617 -0.033736
v -0.549075 0.023174 -0.006569
v -0.669129 0.032534 -0.008281
v -0.672876 0.030312 0.022846
v -0.541365 0.015039 0.020279
v -0.652395 0.028090 0.054185
v -0.592885 0.001559 0.056966
v -0.652459 -0.001468 0.059302
v -0.599532 -0.020761 0.047803
v -0.551623 -0.028225 0.061071
v -0.533600 -0.006047 0.010235
v -0.558357 -0.049865 0.040734
v -0.624359 -0.021948 0.084690
v -0.632694 -0.037122 0.076816
v -0.677825 -0.044667 0.094933
v -0.673859 -0.021626 0.121334
v -0.605567 -0.041537 0.093551
v -0.646831 -0.059043 0.138039
v -0.677825 -0.044667 0.094933
v -0.653031 -0.073751 0.110095
v -0.653031 -0.073751 0.110095
v -0.611585 -0.055488 0.080073
v -0.599532 -0.020761 0.047803
v -0.632694 -0.037122 0.076816
v -0.677825 -0.044667 0.094933
v -0.006130 -0.071850 -0.032364
v -0.016443 -0.034918 0.055757
v -0.029923 -0.049621 -0.031125
v -0.040144 -0.024864 0.050335
v -0.122993 -0.041391 -0.027946
v -0.017274 0.030332 0.069792
v -0.120532 -0.019410 0.040006
v -0.047458 0.029612 0.060736
v -0.042571 0.055940 0.026874
v 0.006130 0.071849 0.032364
v -0.272456 -0.015555 0.028399
v -0.271948 -0.034038 -0.021502
v -0.309588 -0.031329 -0.020135
v -0.126332 0.025962 0.044979
v -0.538147 -0.008993 -0.014533
v -0.533600 -0.006047 0.010235
v -0.310701 -0.014678 0.026222
v -0.274363 0.019562 0.029986
v -0.312690 0.017842 0.027205
v -0.541365 0.015039 0.020279
v -0.312115 0.036044 0.004679
v -0.549075 0.023174 -0.006569
v -0.273831 0.038863 0.006777
v -0.310169 0.038638 -0.025427
v -0.545153 0.006298 -0.032774
v -0.122745 0.049623 0.015303
v -0.309171 0.006947 -0.049282
v -0.538147 -0.008993 -0.014533
v -0.309588 -0.031329 -0.020135
v -0.271948 -0.034038 -0.021502
v -0.272162 0.042139 -0.026634
v -0.271428 0.006912 -0.053106
v -0.122993 -0.041391 -0.027946
v -0.124590 0.052688 -0.029583
v -0.125713 0.010123 -0.068294
v -0.035693 0.061308 -0.027566
v 0.034070 0.074198 -0.032187
v 0.008754 0.009779 -0.085178
v -0.031249 0.010243 -0.079385
v -0.029923 -0.049621 -0.031125
v -0.006130 -0.071850 -0.032364
v -0.816195 -0.012824 -0.052010
v -0.791173 -0.024593 -0.085399
v -0.712348 -0.002423 -0.042051
v -0.704692 -0.006743 -0.072125
v -0.658687 -0.005455 -0.036910
v -0.640043 -0.005274 -0.060350
v -0.795799 0.011984 -0.085395
v -0.701321 0.020908 -0.069726
v -0.640633 0.022170 -0.056152
v -0.659040 0.029617 -0.033736
v -0.714108 0.026967 -0.038330
v -0.824365 0.025218 -0.050119
v -0.816195 -0.012824 -0.052010
v -0.791173 -0.024593 -0.085399
v -0.828310 0.031026 0.070942
v -0.818285 -0.004557 0.032541
v -0.814268 -0.004783 0.068158
v -0.834810 0.034490 0.032589
v -0.721256 0.030199 0.024504
v -0.818285 -0.004557 0.032541
v -0.725502 -0.002042 0.026203
v -0.708851 0.026777 0.060661
v -0.672876 0.030312 0.022846
v -0.652395 0.028090 0.054185
v -0.814268 -0.004783 0.068158
v -0.652459 -0.001468 0.059302
v -0.818285 -0.004557 0.032541
v -0.725502 -0.002042 0.026203
v -0.715310 -0.003047 0.061789
v -0.671563 -0.001287 0.024376
vn -0.0367 0.9971 0.0668
vn 0.0098 0.9998 0.0172
vn -0.0252 0.9986 0.0475
vn 0.0260 0.9063 0.4218
vn -0.8064 0.5898 -0.0432
vn 0.0445 -0.0049 0.9990
vn 0.0250 0.0493 0.9985
vn -0.6741 0.4832 0.5587
vn -0.9486 -0.3143 -0.0362
vn -0.9549 -0.2964 -0.0155
vn -0.0499 -0.9960 0.0738
vn 0.0275 -0.9996 -0.0004
vn -0.0827 -0.9886 0.1259
vn 0.0421 -0.9989 -0.0221
vn 0.0636 -0.9980 -0.0018
vn 0.0612 -0.9981 0.0047
vn -0.0370 0.9911 -0.1282
vn -0.0225 0.9921 -0.1236
vn -0.0370 0.9910 -0.1283
vn -0.0118 0.9911 -0.1329
vn -0.7114 0.5815 -0.3947
vn -0.7073 0.5528 -0.4407
vn -0.9237 -0.2317 -0.3053
vn -0.9443 -0.1894 -0.2693
vn -0.0625 -0.9980 -0.0119
vn -0.0044 -0.9995 0.0313
vn -0.0543 -0.9983 -0.0225
vn 0.0225 -0.9981 0.0575
vn 0.0721 -0.9902 0.1193
vn 0.0673 -0.9893 0.1292
vn -0.3323 -0.9338 -0.1325
vn -0.3065 -0.9378 0.1628
vn -0.2944 -0.9485 0.1167
vn -0.1662 -0.9858 -0.0228
vn 0.1506 -0.9122 -0.3810
vn -0.2067 -0.8587 -0.4689
vn 0.5083 -0.8068 -0.3011
vn 0.2734 -0.9193 -0.2831
vn 0.4025 0.0213 -0.9152
vn 0.1774 -0.5908 -0.7870
vn -0.0606 -0.9976 -0.0329
vn 0.0952 -0.7175 -0.6900
vn 0.2591 0.7690 -0.5844
vn 0.1260 0.9809 -0.1484
vn 0.1468 0.9833 -0.1075
vn 0.0776 0.9969 0.0120
vn 0.0962 0.9935 0.0613
vn 0.5024 0.7130 0.4892
vn 0.1353 0.8487 0.5113
vn 0.1316 0.5712 0.8102
vn 0.0367 0.0472 0.9982
vn -0.9264 0.2134 0.3101
vn 0.7314 -0.0599 0.6794
vn 0.9425 0.0001 0.3342
vn 0.6006 -0.7841 0.1561
vn -0.1767 0.9744 0.1388
vn -0.5069 0.5998 -0.6191
vn -0.4084 0.6938 -0.5931
vn -0.5801 0.6741 0.4572
vn 0.6045 -0.0482 0.7951
vn 0.0898 -0.3036 0.9486
vn -0.8003 -0.4082 0.4393
vn -0.7878 -0.4555 0.4146
vn 0.2718 -0.9140 -0.3014
vn 0.1238 -0.9672 -0.2216
vn -0.4486 -0.5198 -0.7270
vn -0.3220 -0.5542 -0.7676
vn -0.2143 -0.5890 -0.7792
vn -0.6591 -0.7180 0.2238
vn 0.3201 -0.6591 0.6806
vn -0.4104 -0.8743 0.2593
vn -0.2811 -0.6353 0.7193
vn -0.0670 -0.9497 0.3061
vn 0.2753 0.2290 0.9337
vn -0.1216 -0.6399 0.7588
vn -0.2273 0.3560 0.9064
vn -0.2179 0.9069 0.3607
vn 0.4892 0.7150 0.4994
vn -0.0709 -0.5981 0.7983
vn -0.0425 -0.9370 0.3466
vn -0.0558 -0.9414 0.3327
vn -0.1472 0.3845 0.9113
vn -0.0931 -0.9865 0.1344
vn -0.0648 -0.7837 0.6178
vn -0.0718 -0.5906 0.8038
vn -0.0968 0.4052 0.9091
vn -0.0700 0.4072 0.9107
vn -0.0688 0.5621 0.8242
vn -0.0659 0.9286 0.3653
vn -0.0898 0.9850 -0.1476
vn -0.0894 0.9216 0.3777
vn -0.0808 0.9090 -0.4089
vn -0.1157 0.2032 -0.9723
vn -0.1089 0.9307 0.3491
vn -0.0918 -0.0073 -0.9958
vn -0.0462 -0.7570 -0.6517
vn -0.0753 -0.6036 -0.7937
vn -0.0700 -0.6075 -0.7912
vn -0.0929 0.9126 -0.3982
vn -0.1010 -0.0124 -0.9948
vn -0.0776 -0.6186 -0.7819
vn -0.0781 0.9234 -0.3758
vn -0.0956 0.0413 -0.9946
vn -0.1570 0.9165 -0.3680
vn 0.7290 0.6479 -0.2210
vn 0.4546 -0.0278 -0.8903
vn -0.1286 0.0578 -0.9900
vn -0.2577 -0.5466 -0.7968
vn 0.7440 -0.5362 -0.3987
vn 0.0574 -0.9273 0.3699
vn 0.1843 -0.8984 -0.3987
vn 0.0486 -0.9817 0.1839
vn 0.1786 -0.7013 -0.6901
vn -0.0022 -0.9992 0.0394
vn 0.1929 -0.4831 -0.8540
vn -0.3325 0.4419 -0.8332
vn 0.0888 0.6589 -0.7470
vn 0.1663 0.5802 -0.7973
vn 0.0218 0.9656 -0.2592
vn -0.0353 0.9737 -0.2251
vn -0.5578 0.5201 -0.6468
vn -0.8026 -0.1251 -0.5833
vn -0.8130 -0.1027 -0.5731
vn -0.6047 0.4394 0.6642
vn -0.9189 -0.3786 0.1109
vn -0.9234 -0.3700 0.1018
vn -0.7358 0.4904 -0.4670
vn -0.0066 0.9297 -0.3683
vn -0.0712 -0.0316 -0.9970
vn -0.0669 -0.0437 -0.9968
vn 0.0523 0.6819 0.7296
vn -0.0085 0.9963 0.0850
vn 0.0716 0.6508 0.7559
vn 0.0768 -0.6618 0.7457
vn 0.0922 -0.4985 0.8620
vn 0.0265 -0.9996 -0.0093
vn 0.0157 -0.9994 -0.0295
vn 0.0505 -0.7115 0.7009
vn 0.0206 -0.9995 -0.0229
vt 0.193670 -0.443377
vt 0.194506 -0.403045
vt 0.171738 -0.439958
vt 0.172201 -0.403636
vt 0.193857 -0.317126
vt 0.134973 -0.331391
vt 0.148854 -0.402250
vt 0.164433 -0.317666
vt 0.164316 -0.284944
vt 0.191059 -0.284200
vt 0.243082 -0.440712
vt 0.217400 -0.400921
vt 0.220610 -0.444520
vt 0.239842 -0.401469
vt 0.224315 -0.329081
vt 0.251159 -0.330580
vt 0.078151 -0.320056
vt 0.079344 -0.278182
vt 0.057933 -0.315964
vt 0.057191 -0.272501
vt 0.078312 -0.193072
vt 0.047958 -0.185997
vt 0.063477 -0.157021
vt 0.087680 -0.165161
vt 0.126605 -0.313359
vt 0.100695 -0.279115
vt 0.104417 -0.320114
vt 0.123141 -0.272843
vt 0.107364 -0.196181
vt 0.133012 -0.194855
vt 0.300752 -0.096762
vt 0.327661 -0.063684
vt 0.310722 -0.040360
vt 0.288757 -0.032726
vt 0.246840 -0.095530
vt 0.283497 -0.126549
vt 0.242214 -0.126603
vt 0.232494 -0.111051
vt 0.217393 -0.080289
vt 0.237611 -0.062539
vt 0.266680 -0.027905
vt 0.245026 -0.031114
vt 0.225215 -0.025799
vt 0.207399 -0.014120
vt 0.190594 -0.074351
vt 0.189141 -0.006859
vt 0.166582 -0.006186
vt 0.165685 -0.083788
vt 0.144946 -0.023293
vt 0.132497 -0.070172
vt 0.124515 -0.025100
vt 0.116892 -0.064404
vt 0.131719 -0.108126
vt 0.173035 -0.120778
vt 0.127745 -0.126439
vt 0.108852 -0.077392
vt 0.105905 -0.064051
vt 0.054252 -0.041987
vt 0.041962 -0.062184
vt 0.107028 -0.100756
vt 0.041941 -0.095310
vt 0.015843 -0.065586
vt 0.018459 -0.095557
vt 0.040171 -0.117580
vt 0.103281 -0.116156
vt 0.099314 -0.139763
vt 0.090733 -0.130521
vt 0.038377 -0.148077
vt 0.386658 -0.712258
vt 0.000000 0.000000
vt 0.399460 -0.664865
vt 0.374125 -0.704255
vt 0.386027 -0.657505
vt 0.315330 -0.675216
vt 0.412056 -0.617296
vt 0.327126 -0.639854
vt 0.389485 -0.614365
vt 0.392805 -0.582035
vt 0.419614 -0.581013
vt 0.217419 -0.623350
vt 0.209759 -0.661745
vt 0.183310 -0.654639
vt 0.329076 -0.605746
vt 0.019095 -0.625024
vt 0.025470 -0.607451
vt 0.189213 -0.619576
vt 0.219189 -0.597386
vt 0.189996 -0.595840
vt 0.025654 -0.590821
vt 0.190910 -0.574555
vt 0.020085 -0.571076
vt 0.220151 -0.575147
vt 0.191932 -0.552424
vt 0.019159 -0.544599
vt 0.332481 -0.577254
vt 0.188406 -0.521561
vt 0.016446 -0.526311
vt 0.178470 -0.484586
vt 0.204708 -0.476097
vt 0.220447 -0.550498
vt 0.216358 -0.516305
vt 0.307009 -0.444600
vt 0.329575 -0.543697
vt 0.322339 -0.498609
vt 0.395375 -0.540712
vt 0.423611 -0.537487
vt 0.419352 -0.475127
vt 0.390555 -0.481621
vt 0.369074 -0.416710
vt 0.385673 -0.405435
vt 0.259684 -0.160603
vt 0.235608 -0.162590
vt 0.249825 -0.226721
vt 0.228401 -0.226366
vt 0.243780 -0.265190
vt 0.223776 -0.273408
vt 0.212322 -0.158401
vt 0.208218 -0.227277
vt 0.203800 -0.271996
vt 0.185387 -0.260705
vt 0.184864 -0.220678
vt 0.185305 -0.150915
vt 0.198759 -0.127760
vt 0.221290 -0.136514
vt 0.055524 -0.364510
vt 0.069557 -0.327231
vt 0.044905 -0.337716
vt 0.083324 -0.355797
vt 0.099451 -0.441620
vt 0.113910 -0.363679
vt 0.122715 -0.433497
vt 0.073922 -0.452380
vt 0.105507 -0.475430
vt 0.084383 -0.493691
vt 0.032022 -0.381051
vt 0.062523 -0.498331
vt 0.005737 -0.386366
vt 0.025539 -0.454016
vt 0.051061 -0.452786
vt 0.033462 -0.492235
s 1
usemtl Tex_0145_0_dds
f 1/1/1 2/2/2 3/3/3
f 3/3/3 2/2/2 4/4/4
f 2/2/2 5/5/5 4/4/4
f 4/4/4 6/6/6 7/7/7
f 8/8/8 6/6/6 4/4/4
f 4/4/4 5/5/5 8/8/8
f 5/5/5 9/9/9 8/8/8
f 10/10/10 9/9/9 5/5/5
f 11/11/11 12/12/12 13/13/13
f 14/14/14 12/12/12 11/11/11
f 14/14/14 15/15/15 12/12/12
f 16/16/16 15/15/15 14/14/14
f 17/17/17 18/18/18 19/19/19
f 19/19/19 18/18/18 20/20/20
f 18/18/18 21/21/21 20/20/20
f 20/20/20 21/21/21 22/22/22
f 21/21/21 23/23/23 22/22/22
f 24/24/24 23/23/23 21/21/21
f 25/25/25 26/26/26 27/27/27
f 28/28/28 26/26/26 25/25/25
f 28/28/28 29/29/29 26/26/26
f 30/30/30 29/29/29 28/28/28
f 31/31/31 32/32/32 33/33/33
f 33/33/33 34/34/34 31/31/31
f 31/31/31 34/34/34 35/35/35
f 31/31/31 35/35/35 36/36/36
f 35/35/35 37/37/37 36/36/36
f 38/38/38 37/37/37 35/35/35
f 38/38/38 35/35/35 39/39/39
f 35/35/35 34/34/34 40/40/40
f 39/39/39 35/35/35 40/40/40
f 40/40/40 34/34/34 41/41/41
f 41/41/41 42/42/42 40/40/40
f 42/42/42 43/43/43 40/40/40
f 40/40/40 43/43/43 39/39/39
f 39/39/39 43/43/43 44/44/44
f 44/44/44 45/45/45 39/39/39
f 44/44/44 46/46/46 45/45/45
f 45/45/45 46/46/46 47/47/47
f 45/45/45 47/47/47 48/48/48
f 47/47/47 49/49/49 48/48/48
f 48/48/48 49/49/49 50/50/50
f 49/49/49 51/51/51 50/50/50
f 50/50/50 51/51/51 52/52/52
f 50/50/50 53/53/53 48/48/48
f 53/53/53 54/54/54 48/48/48
f 55/55/55 54/54/54 53/53/53
f 50/50/50 52/52/52 56/56/56
f 56/56/56 52/52/52 57/57/57
f 57/57/57 58/58/58 56/56/56
f 56/56/56 58/58/58 59/59/59
f 50/50/50 60/60/60 53/53/53
f 56/56/56 60/60/60 50/50/50
f 61/61/61 56/56/56 59/59/59
f 56/56/56 61/61/61 60/60/60
f 59/59/59 62/62/62 61/61/61
f 61/61/61 62/62/62 63/63/63
f 61/61/61 64/64/64 60/60/60
f 60/60/60 65/65/65 53/53/53
f 60/60/60 64/64/64 65/65/65
f 53/53/53 65/65/65 55/55/55
f 65/65/65 66/66/66 55/55/55
f 67/67/67 66/66/66 65/65/65
f 64/64/64 67/67/67 65/65/65
f 68/68/68 67/67/67 64/64/64
f 69/69/69 70/71/70 71/72/71
f 71/72/71 70/71/70 72/73/72
f 71/72/71 72/73/72 73/74/73
f 70/71/70 74/75/74 72/73/72
f 73/74/73 72/73/72 75/76/75
f 72/73/72 74/75/74 76/77/76
f 72/73/72 76/77/76 75/76/75
f 76/77/76 74/75/74 77/78/77
f 77/78/77 74/75/74 78/79/78
f 75/76/75 79/80/79 73/74/73
f 73/74/73 79/80/79 80/81/80
f 80/81/80 79/80/79 81/82/81
f 75/76/75 76/77/76 82/83/82
f 75/76/75 82/83/82 79/80/79
f 83/84/83 81/82/81 84/85/84
f 81/82/81 79/80/79 85/86/85
f 84/85/84 81/82/81 85/86/85
f 79/80/79 86/87/86 85/86/85
f 79/80/79 82/83/82 86/87/86
f 85/86/85 87/88/87 84/85/84
f 85/86/85 86/87/86 87/88/87
f 84/85/84 87/88/87 88/89/88
f 89/90/89 88/89/88 87/88/87
f 87/88/87 86/87/86 89/90/89
f 88/89/88 89/90/89 90/91/90
f 86/87/86 82/83/82 91/92/91
f 89/90/89 86/87/86 91/92/91
f 90/91/90 89/90/89 92/93/92
f 89/90/89 91/92/91 92/93/92
f 90/91/90 92/93/92 93/94/93
f 91/92/91 82/83/82 94/95/94
f 82/83/82 76/77/76 94/95/94
f 94/95/94 76/77/76 77/78/77
f 93/94/93 92/93/92 95/96/95
f 93/94/93 95/96/95 96/97/96
f 96/97/96 95/96/95 97/98/97
f 95/96/95 98/99/98 97/98/97
f 99/100/99 95/96/95 92/93/92
f 92/93/92 91/92/91 99/100/99
f 95/96/95 100/101/100 98/99/98
f 95/96/95 99/100/99 100/101/100
f 98/99/98 100/101/100 101/102/101
f 99/100/99 91/92/91 102/103/102
f 94/95/94 102/103/102 91/92/91
f 99/100/99 103/104/103 100/101/100
f 102/103/102 103/104/103 99/100/99
f 100/101/100 103/104/103 101/102/101
f 94/95/94 104/105/104 102/103/102
f 102/103/102 104/105/104 103/104/103
f 104/105/104 94/95/94 77/78/77
f 77/78/77 78/79/78 104/105/104
f 104/105/104 78/79/78 105/106/105
f 105/106/105 106/107/106 104/105/104
f 103/104/103 104/105/104 107/108/107
f 104/105/104 106/107/106 107/108/107
f 103/104/103 107/108/107 101/102/101
f 101/102/101 107/108/107 108/109/108
f 107/108/107 106/107/106 108/109/108
f 108/109/108 106/107/106 109/110/109
f 110/111/110 111/112/111 112/113/112
f 112/113/112 111/112/111 113/114/113
f 112/113/112 113/114/113 114/115/114
f 114/115/114 113/114/113 115/116/115
f 111/112/111 116/117/116 113/114/113
f 115/116/115 113/114/113 117/118/117
f 113/114/113 116/117/116 117/118/117
f 115/116/115 117/118/117 118/119/118
f 118/119/118 117/118/117 119/120/119
f 119/120/119 117/118/117 120/121/120
f 117/118/117 116/117/116 120/121/120
f 120/121/120 116/117/116 121/122/121
f 116/117/116 122/123/122 121/122/121
f 123/124/123 122/123/122 116/117/116
f 124/125/124 125/126/125 126/127/126
f 127/128/127 125/126/125 124/125/124
f 127/128/127 124/125/124 128/129/128
f 128/129/128 129/130/129 127/128/127
f 130/131/130 129/130/129 128/129/128
f 128/129/128 124/125/124 131/132/131
f 128/129/128 131/132/131 132/133/132
f 132/133/132 131/132/131 133/134/133
f 124/125/124 134/135/134 131/132/131
f 133/134/133 131/132/131 135/136/135
f 134/135/134 136/137/136 137/138/137
f 135/136/135 131/132/131 138/139/138
f 131/132/131 134/135/134 138/139/138
f 138/139/138 134/135/134 137/138/137
f 135/136/135 138/139/138 139/140/139
f 139/140/139 138/139/138 137/138/137
f 106/107/106 105/106/105 109/110/109
f 105/106/105 78/79/78 109/110/109
f 109/110/109 78/79/78 70/70/70
f 74/75/74 70/71/70 78/79/78
