# Blender 3.5.1
# www.blender.org
mtllib PiernaIzqMono2.mtl
o PiernaIzqMono
v -0.064475 0.184643 0.155992
v -0.058300 0.098458 0.148433
v -0.029572 0.187253 0.154965
v 0.058196 0.091291 0.149739
v 0.012895 0.188339 0.154035
v -0.029572 0.187253 0.154965
v 0.012895 0.188339 0.154035
v 0.058196 0.091291 0.149739
v 0.047769 0.181596 0.153022
v 0.072725 0.171970 0.153665
v 0.012895 0.188339 0.154035
v 0.022353 0.306062 0.154439
v -0.029572 0.187253 0.154965
v -0.027333 0.313638 0.154620
v 0.047769 0.181596 0.153022
v 0.065379 0.283763 0.155590
v 0.012895 0.188339 0.154035
v 0.022353 0.306062 0.154439
v 0.045522 -0.011634 0.155159
v 0.053837 0.091266 0.125026
v 0.058196 0.091291 0.149739
v 0.032808 -0.011952 0.115191
v 0.029765 0.101257 0.122109
v 0.001720 0.031140 0.098972
v 0.002852 0.107075 0.119192
v -0.022356 0.106401 0.121414
v -0.032182 0.007126 0.114360
v -0.053185 0.098313 0.123636
v -0.050414 0.022369 0.131267
v -0.058300 0.098458 0.148433
v -0.047288 0.019061 0.155249
v 0.029765 0.101257 0.122109
v 0.002852 0.107075 0.119192
v 0.042837 0.183432 0.120978
v 0.012520 0.189838 0.117714
v 0.063567 0.288931 0.118263
v 0.024154 0.319306 0.114005
v 0.022353 0.306062 0.154439
v 0.065379 0.283763 0.155590
v -0.062113 0.002046 0.154795
v 0.004389 -0.068088 0.155516
v -0.047288 0.019061 0.155249
v 0.045522 -0.011634 0.155159
v 0.058196 0.091291 0.149739
v -0.058300 0.098458 0.148433
v -0.105142 0.149671 0.154233
v -0.047288 0.019061 0.155249
v -0.075312 0.155957 0.152976
v -0.062113 0.002046 0.154795
v -0.060385 -0.001034 0.133622
v 0.004389 -0.068088 0.155516
v -0.037351 -0.026845 0.116378
v -0.104128 0.154664 0.123792
v -0.075312 0.155957 0.152976
v -0.105142 0.149671 0.154233
v -0.075923 0.161744 0.123908
v -0.050414 0.022369 0.131267
v -0.075312 0.155957 0.152976
v -0.047288 0.019061 0.155249
v -0.032182 0.007126 0.114360
v -0.033111 -0.014205 0.002742
v -0.024015 0.014090 -0.000119
v 0.001720 0.031140 0.098972
v 0.007318 0.024190 -0.000125
v -0.033111 -0.014205 0.002742
v -0.009526 -0.047368 0.000496
v 0.024015 -0.014090 0.000119
v 0.032808 -0.011952 0.115191
v -0.001884 -0.056218 0.087591
v -0.037351 -0.026845 0.116378
v 0.004389 -0.068088 0.155516
v 0.045522 -0.011634 0.155159
v 0.024154 0.319306 0.114005
v -0.027333 0.313638 0.154620
v 0.022353 0.306062 0.154439
v -0.028470 0.329053 0.116228
v -0.028503 0.188589 0.119179
v -0.027333 0.313638 0.154620
v -0.029572 0.187253 0.154965
v 0.012520 0.189838 0.117714
v 0.002852 0.107075 0.119192
v -0.022356 0.106401 0.121414
v -0.068867 0.292615 0.151748
v -0.029572 0.187253 0.154965
v -0.033192 0.296080 0.151523
v -0.064475 0.184643 0.155992
v -0.063396 0.185312 0.121063
v -0.058300 0.098458 0.148433
v -0.053185 0.098313 0.123636
v -0.022356 0.106401 0.121414
v -0.071434 0.306697 0.116029
v -0.028503 0.188589 0.119179
v -0.029572 0.187253 0.154965
v -0.033192 0.296080 0.151523
v -0.032985 0.312605 0.112564
v -0.033192 0.296080 0.151523
v -0.068867 0.292615 0.151748
v 0.047769 0.181596 0.153022
v 0.088473 0.251870 0.156702
v 0.065379 0.283763 0.155590
v 0.072725 0.171970 0.153665
v 0.070922 0.173423 0.124317
v 0.058196 0.091291 0.149739
v 0.053837 0.091266 0.125026
v 0.029765 0.101257 0.122109
v 0.042837 0.183432 0.120978
v 0.088728 0.254838 0.122967
v 0.063567 0.288931 0.118263
v 0.065379 0.283763 0.155590
v 0.088473 0.251870 0.156702
vn 0.0356 -0.0848 0.9958
vn 0.0049 -0.0649 0.9979
vn -0.0143 -0.0509 0.9986
vn 0.0026 -0.0643 0.9979
vn 0.0239 -0.0810 0.9964
vn 0.0225 -0.0337 0.9992
vn -0.0081 -0.0373 0.9993
vn -0.0010 -0.0364 0.9993
vn -0.0416 -0.0411 0.9983
vn 0.0220 -0.0052 0.9997
vn 0.0077 0.0011 1.0000
vn 0.0174 -0.0032 0.9998
vn 0.0040 0.0027 1.0000
vn 0.0234 -0.0291 0.9993
vn -0.0184 -0.0062 0.9998
vn 0.0106 -0.0221 0.9997
vn -0.0274 -0.0012 0.9996
vn 0.9471 -0.1583 -0.2793
vn 0.6761 -0.0430 -0.7355
vn 0.9766 -0.1293 -0.1721
vn 0.8124 -0.0801 -0.5776
vn 0.2144 0.1530 -0.9647
vn 0.0656 0.1265 -0.9898
vn 0.0272 0.2568 -0.9661
vn -0.1526 0.1633 -0.9747
vn -0.5254 0.0267 -0.8504
vn -0.6556 0.0064 -0.7551
vn -0.9211 -0.1140 -0.3722
vn -0.9871 -0.0699 -0.1438
vn -0.9857 -0.1272 0.1109
vn 0.1013 -0.0298 -0.9944
vn 0.1012 -0.0297 -0.9944
vn 0.0993 -0.0370 -0.9944
vn 0.0970 -0.0366 -0.9946
vn 0.4361 0.5776 -0.6900
vn 0.5787 0.6899 -0.4349
vn 0.5246 0.8259 0.2066
vn 0.4557 0.8845 0.1003
vn -0.0203 -0.0090 0.9998
vn -0.0012 0.0024 1.0000
vn -0.0035 0.0331 0.9994
vn 0.0104 0.0285 0.9995
vn 0.0073 0.0655 0.9978
vn -0.0060 0.0847 0.9964
vn -0.7448 -0.2046 0.6351
vn -0.0201 -0.0011 0.9998
vn 0.0370 0.0242 0.9990
vn -0.8379 -0.4516 0.3067
vn -0.8283 -0.3526 -0.4355
vn -0.7263 -0.6857 0.0488
vn -0.9280 -0.3167 -0.1961
vn -0.6825 0.4643 -0.5645
vn -0.2180 0.9606 0.1727
vn -0.1976 0.9684 0.1523
vn 0.4274 0.7326 -0.5298
vn 0.2050 0.1010 -0.9735
vn 0.9832 0.1826 0.0040
vn 0.9751 0.1980 -0.0998
vn -0.8503 0.3423 -0.3999
vn -0.9602 0.2759 -0.0447
vn -0.5557 0.5238 -0.6456
vn 0.1795 0.9829 -0.0406
vn 0.3557 0.7177 -0.5986
vn 0.7721 -0.1140 -0.6251
vn 0.9414 -0.2986 -0.1570
vn -0.1127 -0.7914 -0.6008
vn 0.0754 -0.9873 -0.1395
vn -0.5371 -0.3719 -0.7571
vn -0.6760 -0.7319 -0.0860
vn 0.4159 -0.8826 -0.2191
vn 0.7830 -0.5720 -0.2445
vn 0.0976 0.7708 -0.6296
vn 0.1675 0.9249 0.3414
vn 0.1442 0.9385 0.3138
vn -0.5169 0.7362 -0.4369
vn -0.4936 -0.0114 -0.8696
vn -0.9998 0.0033 0.0215
vn -0.9994 0.0176 -0.0292
vn -0.0351 -0.0201 -0.9992
vn -0.0723 -0.0280 -0.9970
vn -0.0869 -0.0336 -0.9957
vn -0.7581 -0.0254 0.6517
vn 0.0217 0.0386 0.9990
vn 0.0032 0.0317 0.9995
vn -0.8995 -0.0316 0.4358
vn -0.7161 -0.0680 -0.6947
vn -0.9810 -0.1084 -0.1612
vn -0.6771 -0.1010 -0.7289
vn -0.0596 -0.0355 -0.9976
vn -0.6528 0.6137 -0.4441
vn 0.4298 -0.0192 -0.9027
vn 0.9989 0.0342 0.0311
vn 0.9991 0.0367 0.0227
vn 0.4837 0.7219 -0.4949
vn -0.0966 0.9202 0.3794
vn -0.0875 0.9246 0.3708
vn -0.0434 -0.0272 0.9987
vn 0.5298 -0.1382 0.8368
vn -0.0668 -0.0136 0.9977
vn 0.9152 -0.1857 0.3576
vn 0.7060 -0.1448 -0.6933
vn 0.9692 -0.1963 -0.1489
vn 0.6991 -0.1514 -0.6988
vn 0.1075 -0.0309 -0.9937
vn 0.1073 -0.0366 -0.9935
vn 0.8061 0.1588 -0.5701
vn 0.7337 0.4744 -0.4864
vn 0.8039 0.5927 0.0498
vn 0.8076 0.5868 0.0577
vt 0.525596 -0.509082
vt 0.518289 -0.467236
vt 0.504338 -0.511913
vt 0.449395 -0.470957
vt 0.482980 -0.531476
vt 0.504338 -0.511913
vt 0.482980 -0.531476
vt 0.449395 -0.470957
vt 0.457071 -0.511238
vt 0.449931 -0.509479
vt 0.530717 -0.514706
vt 0.535476 -0.431792
vt 0.556500 -0.519387
vt 0.567807 -0.433565
vt 0.621515 -0.113318
vt 0.623839 -0.048776
vt 0.640396 -0.112283
vt 0.647399 -0.044446
vt 0.565847 -0.192550
vt 0.582808 -0.244565
vt 0.567414 -0.243751
vt 0.590442 -0.189861
vt 0.599169 -0.250826
vt 0.616835 -0.204696
vt 0.617325 -0.254358
vt 0.634232 -0.253977
vt 0.639005 -0.188975
vt 0.654915 -0.248700
vt 0.656389 -0.197729
vt 0.671807 -0.247847
vt 0.672300 -0.194181
vt 0.603560 -0.162312
vt 0.587064 -0.161744
vt 0.602396 -0.112565
vt 0.585100 -0.111934
vt 0.601627 -0.045811
vt 0.577456 -0.037792
vt 0.589264 -0.015750
vt 0.611092 -0.025434
vt 0.362072 -0.319356
vt 0.324557 -0.364023
vt 0.349049 -0.306032
vt 0.279006 -0.325238
vt 0.271528 -0.247369
vt 0.360457 -0.247408
vt 0.439506 -0.020972
vt 0.352682 -0.088804
vt 0.422148 -0.005215
vt 0.357278 -0.104299
vt 0.365182 -0.119093
vt 0.315607 -0.146070
vt 0.362149 -0.170090
vt 0.458548 -0.034611
vt 0.491024 -0.037380
vt 0.476472 -0.019104
vt 0.473346 -0.051364
vt 0.384799 -0.121833
vt 0.482510 -0.071501
vt 0.394698 -0.136020
vt 0.387822 -0.164676
vt 0.379243 -0.231783
vt 0.000000 0.000000
vt 0.402470 -0.230730
vt 0.414872 -0.161122
vt 0.424239 -0.227345
vt 0.533911 -0.227737
vt 0.500942 -0.224291
vt 0.459347 -0.223596
vt 0.458272 -0.134863
vt 0.505220 -0.156954
vt 0.543346 -0.163757
vt 0.513654 -0.104354
vt 0.456772 -0.105854
vt 0.508384 -0.419548
vt 0.473899 -0.390974
vt 0.506242 -0.389920
vt 0.473265 -0.419278
vt 0.480211 -0.514923
vt 0.448180 -0.432488
vt 0.457057 -0.518643
vt 0.505972 -0.512405
vt 0.503960 -0.569382
vt 0.486695 -0.570897
vt 0.540509 -0.637046
vt 0.526235 -0.710883
vt 0.516835 -0.638568
vt 0.547821 -0.707905
vt 0.570834 -0.704808
vt 0.558411 -0.764139
vt 0.575179 -0.762725
vt 0.595852 -0.757872
vt 0.562818 -0.624597
vt 0.592803 -0.703040
vt 0.617562 -0.703534
vt 0.614184 -0.631301
vt 0.588340 -0.620347
vt 0.579752 -0.593602
vt 0.556830 -0.599735
vt 0.747274 -0.101881
vt 0.733534 -0.052057
vt 0.750089 -0.037959
vt 0.731544 -0.104283
vt 0.712655 -0.103635
vt 0.735412 -0.158023
vt 0.713271 -0.157522
vt 0.696700 -0.154579
vt 0.694092 -0.101233
vt 0.711893 -0.050077
vt 0.691939 -0.034883
vt 0.711510 -0.020301
vt 0.727391 -0.034637
s 1
usemtl Tex_0145_0_dds
f 1/1/1 2/2/2 3/3/1
f 4/4/3 5/5/4 2/2/2
f 2/2/2 5/5/4 6/6/5
f 7/7/6 8/8/7 9/9/8
f 8/8/7 10/10/9 9/9/8
f 11/11/10 12/12/11 13/13/12
f 13/13/12 12/12/11 14/14/13
f 15/15/14 16/16/15 17/17/16
f 17/17/16 16/16/15 18/18/17
f 19/19/18 20/20/19 21/21/20
f 22/22/21 20/20/19 19/19/18
f 22/22/21 23/23/22 20/20/19
f 22/22/21 24/24/23 23/23/22
f 23/23/22 24/24/23 25/25/24
f 24/24/23 26/26/25 25/25/24
f 24/24/23 27/27/26 26/26/25
f 26/26/25 27/27/26 28/28/27
f 27/27/26 29/29/28 28/28/27
f 29/29/28 30/30/29 28/28/27
f 31/31/30 30/30/29 29/29/28
f 32/32/31 33/33/32 34/34/33
f 34/34/33 33/33/32 35/35/34
f 34/34/33 35/35/34 36/36/35
f 36/36/35 35/35/34 37/37/36
f 37/37/36 38/38/37 36/36/35
f 36/36/35 38/38/37 39/39/38
f 40/40/39 41/41/40 42/42/41
f 42/42/41 41/41/40 43/43/42
f 44/44/43 42/42/41 43/43/42
f 45/45/44 42/42/41 44/44/43
f 46/46/45 47/47/46 48/48/47
f 49/49/48 47/47/46 46/46/45
f 46/46/45 50/50/49 49/49/48
f 49/49/48 50/50/49 51/51/50
f 52/52/51 51/51/50 50/50/49
f 53/53/52 50/50/49 46/46/45
f 54/54/53 53/53/52 55/55/54
f 53/53/52 54/54/53 56/56/55
f 57/57/56 53/53/52 56/56/55
f 50/50/49 53/53/52 57/57/56
f 56/56/55 58/58/57 57/57/56
f 57/57/56 58/58/57 59/59/58
f 50/50/49 57/57/56 60/60/59
f 52/52/51 50/50/49 60/60/59
f 60/60/59 61/61/60 52/52/51
f 62/63/61 61/61/60 60/60/59
f 62/63/61 60/60/59 63/64/62
f 62/63/61 63/64/62 64/65/63
f 64/65/63 63/64/62 67/68/64
f 67/68/64 63/64/62 68/69/65
f 66/67/66 69/70/67 65/66/68
f 66/67/66 67/68/64 69/70/67
f 69/70/67 67/68/64 68/69/65
f 65/66/68 69/70/67 70/71/69
f 70/71/69 69/70/67 71/72/70
f 69/70/67 68/69/65 71/72/70
f 68/69/65 72/73/71 71/72/70
f 73/74/72 74/75/73 75/76/74
f 76/77/75 74/75/73 73/74/72
f 73/74/72 77/78/76 76/77/75
f 77/78/76 78/79/77 76/77/75
f 79/80/78 78/79/77 77/78/76
f 80/81/79 77/78/76 73/74/72
f 81/82/80 77/78/76 80/81/79
f 82/83/81 77/78/76 81/82/80
f 83/84/82 84/85/83 85/86/84
f 86/87/85 84/85/83 83/84/82
f 86/87/85 83/84/82 87/88/86
f 87/88/86 88/89/87 86/87/85
f 89/90/88 88/89/87 87/88/86
f 89/90/88 87/88/86 90/91/89
f 87/88/86 83/84/82 91/92/90
f 90/91/89 87/88/86 92/93/91
f 87/88/86 91/92/90 92/93/91
f 93/94/92 92/93/91 94/95/93
f 94/95/93 92/93/91 95/96/94
f 92/93/91 91/92/90 95/96/94
f 95/96/94 91/92/90 96/97/95
f 96/97/95 91/92/90 97/98/96
f 98/99/97 99/100/98 100/101/99
f 101/102/100 99/100/98 98/99/97
f 101/102/100 102/103/101 99/100/98
f 103/104/102 102/103/101 101/102/100
f 104/105/103 102/103/101 103/104/102
f 104/105/103 105/106/104 102/103/101
f 102/103/101 105/106/104 106/107/105
f 99/100/98 102/103/101 107/108/106
f 102/103/101 106/107/105 107/108/106
f 107/108/106 106/107/105 108/109/107
f 108/109/107 109/110/108 107/108/106
f 107/108/106 109/110/108 110/111/109
f 62/62/61 66/67/66 65/66/68
f 66/67/66 62/62/61 67/68/64
f 64/65/63 67/68/64 62/63/61
